<svg width="260" height="57" viewBox="0 0 260 57" fill="none" xmlns="http://www.w3.org/2000/svg">
<circle cx="25" cy="27" r="25" fill="#F309DD"/>
<path d="M13.68 43.48C13.0933 43.1333 12.72 42.76 12.56 42.36C12.4 41.9867 12.32 41.6667 12.32 41.4C12.32 40.6533 12.5867 39.64 13.12 38.36C13.68 37.08 14.4133 35.6267 15.32 34C16.2533 32.3467 17.28 30.64 18.4 28.88C17.4133 28.8 16.5733 28.7467 15.88 28.72C15.1867 28.6933 14.5867 28.68 14.08 28.68H12.68C12.9733 27.9067 13.48 27.3733 14.2 27.08C14.9467 26.76 15.8267 26.6 16.84 26.6C17.2933 26.6 17.76 26.6267 18.24 26.68C18.72 26.7333 19.2133 26.8 19.72 26.88C21.08 24.8267 22.4667 22.84 23.88 20.92C25.32 18.9733 26.6533 17.2533 27.88 15.76C29.1333 14.24 30.1733 13.0933 31 12.32C31.7733 11.5733 32.4133 11.2 32.92 11.2C33.48 11.2 34.1867 11.6267 35.04 12.48C34.7733 12.6933 34.4267 13.2667 34 14.2C33.6 15.1067 33.16 16.2533 32.68 17.64C32.2267 19.0267 31.7733 20.5467 31.32 22.2C30.8667 23.8533 30.44 25.5467 30.04 27.28C29.6667 28.9867 29.36 30.6133 29.12 32.16C28.9067 33.7067 28.8 35.0667 28.8 36.24C28.8 37.2533 28.9067 38.04 29.12 38.6C29.36 39.16 29.7467 39.44 30.28 39.44C30.9733 39.44 31.76 38.96 32.64 38C33.52 37.04 34.48 35.5467 35.52 33.52L35.92 33.92C35.12 36.0533 34.0933 37.8 32.84 39.16C31.6133 40.52 30.3333 41.2 29 41.2C27.9067 41.2 27.1067 40.72 26.6 39.76C26.12 38.7733 25.88 37.4667 25.88 35.84C25.88 34.1333 26.1067 32.1467 26.56 29.88C25.3867 29.6933 24.3067 29.5467 23.32 29.44C22.36 29.3067 21.4667 29.1867 20.64 29.08C19.3867 31.4 18.16 33.7867 16.96 36.24C15.7867 38.6933 14.6933 41.1067 13.68 43.48ZM26.84 28.48C27.24 26.72 27.7067 24.9467 28.24 23.16C28.7733 21.3467 29.3333 19.6267 29.92 18C30.5333 16.3733 31.1067 14.9467 31.64 13.72C30.8133 14.2267 29.8533 15.1333 28.76 16.44C27.6933 17.72 26.56 19.2933 25.36 21.16C24.16 23 22.9333 25.0267 21.68 27.24C22.5867 27.4267 23.48 27.64 24.36 27.88C25.2667 28.0933 26.0933 28.2933 26.84 28.48Z" fill="white"/>
<path d="M80.192 38.864H68.864L67.184 44H56L68.432 10.016H80.72L93.104 44H81.872L80.192 38.864ZM77.6 30.848L74.528 21.392L71.456 30.848H77.6ZM131.669 16.736C135.125 16.736 137.797 17.776 139.685 19.856C141.605 21.936 142.565 24.752 142.565 28.304V44H131.957V29.648C131.957 28.496 131.605 27.6 130.901 26.96C130.229 26.288 129.317 25.952 128.165 25.952C126.981 25.952 126.053 26.288 125.381 26.96C124.709 27.6 124.373 28.496 124.373 29.648V44H113.765V29.648C113.765 28.496 113.413 27.6 112.709 26.96C112.037 26.288 111.125 25.952 109.973 25.952C108.789 25.952 107.861 26.288 107.189 26.96C106.517 27.6 106.181 28.496 106.181 29.648V44H95.525V16.928H106.181V20.576C106.949 19.424 107.989 18.496 109.301 17.792C110.645 17.088 112.213 16.736 114.005 16.736C115.957 16.736 117.685 17.168 119.189 18.032C120.693 18.864 121.893 20.048 122.789 21.584C123.781 20.176 125.045 19.024 126.581 18.128C128.117 17.2 129.813 16.736 131.669 16.736ZM157.837 20.624C158.509 19.376 159.469 18.4 160.717 17.696C161.997 16.96 163.517 16.592 165.277 16.592C167.389 16.592 169.293 17.152 170.989 18.272C172.685 19.36 174.013 20.96 174.973 23.072C175.965 25.152 176.461 27.616 176.461 30.464C176.461 33.312 175.965 35.792 174.973 37.904C174.013 39.984 172.685 41.584 170.989 42.704C169.293 43.792 167.389 44.336 165.277 44.336C163.517 44.336 161.997 43.984 160.717 43.28C159.469 42.544 158.509 41.552 157.837 40.304V56.96H147.181V16.928H157.837V20.624ZM165.661 30.464C165.661 29.024 165.293 27.904 164.557 27.104C163.821 26.304 162.877 25.904 161.725 25.904C160.573 25.904 159.629 26.304 158.893 27.104C158.157 27.904 157.789 29.024 157.789 30.464C157.789 31.904 158.157 33.024 158.893 33.824C159.629 34.624 160.573 35.024 161.725 35.024C162.877 35.024 163.821 34.624 164.557 33.824C165.293 33.024 165.661 31.904 165.661 30.464ZM190.462 8.48V44H179.806V8.48H190.462ZM200.651 14.768C198.795 14.768 197.307 14.272 196.187 13.28C195.067 12.288 194.507 11.04 194.507 9.536C194.507 8 195.067 6.736 196.187 5.744C197.307 4.72 198.795 4.208 200.651 4.208C202.475 4.208 203.947 4.72 205.067 5.744C206.187 6.736 206.747 8 206.747 9.536C206.747 11.04 206.187 12.288 205.067 13.28C203.947 14.272 202.475 14.768 200.651 14.768ZM205.931 16.928V44H195.275V16.928H205.931ZM226.344 15.008C225.768 14.944 225.368 14.912 225.144 14.912C224.344 14.912 223.736 15.072 223.32 15.392C222.904 15.68 222.616 16.192 222.456 16.928H226.344V25.808H222.36V44H211.704V25.808H208.824V16.928H211.704C211.768 13.408 212.872 10.688 215.016 8.768C217.192 6.816 220.232 5.84 224.136 5.84C224.584 5.84 225.32 5.872 226.344 5.936V15.008ZM259.789 16.928L242.461 56.96H230.797L237.613 42.656L226.332 16.928H238.189L243.277 30.656L248.029 16.928H259.789Z" fill="black"/>
<circle cx="200.5" cy="7.5" r="7.5" fill="#F309DD"/>
</svg>
