<svg version="1.1" viewBox="0.0 0.0 575.0 510.0" fill="none" stroke="none" stroke-linecap="square" stroke-miterlimit="10" xmlns:xlink="http://www.w3.org/1999/xlink" xmlns="http://www.w3.org/2000/svg"><clipPath id="p.0"><path d="m0 0l575.0 0l0 510.0l-575.0 0l0 -510.0z" clip-rule="nonzero"/></clipPath><g clip-path="url(#p.0)"><path fill="#000000" fill-opacity="0.0" d="m0 0l575.0 0l0 510.0l-575.0 0z" fill-rule="evenodd"/><g filter="url(#shadowFilter-p.1)"><use xlink:href="#p.1" transform="matrix(1.0 0.0 0.0 1.0 -0.2756372703412064 0.9612616797900126)"/></g><defs><filter id="shadowFilter-p.1" filterUnits="userSpaceOnUse"><feGaussianBlur in="SourceAlpha" stdDeviation="0.0" result="blur"/><feComponentTransfer in="blur" color-interpolation-filters="sRGB"><feFuncR type="linear" slope="0" intercept="0.8509804"/><feFuncG type="linear" slope="0" intercept="0.8509804"/><feFuncB type="linear" slope="0" intercept="0.8509804"/><feFuncA type="linear" slope="1.0" intercept="0"/></feComponentTransfer></filter></defs><g id="p.1"><path fill="#f3f3f3" d="m34.94973 117.13064l0 0c0 -38.3302 31.072762 -69.40296 69.40296 -69.40296l367.33582 0c18.4068 0 36.059723 7.3120766 49.075287 20.32766c13.015564 13.015579 20.327698 30.668495 20.327698 49.075302l0 277.60352c0 38.3302 -31.072784 69.402954 -69.402985 69.402954l-367.33582 0c-38.3302 0 -69.40296 -31.072754 -69.40296 -69.402954z" fill-rule="evenodd"/></g><defs><linearGradient id="p.2" gradientUnits="userSpaceOnUse" gradientTransform="matrix(11.14941558102431 0.0 0.0 11.14941558102431 0.0 0.0)" spreadMethod="pad" x1="39.49655601768418" y1="33.899716225618654" x2="39.49428652853415" y2="45.04913157566309"><stop offset="0.0" stop-color="#15da7a"/><stop offset="1.0" stop-color="#0e5e37"/></linearGradient></defs><path fill="url(#p.2)" d="m440.36353 398.70236l0 0c0 -11.440186 9.274109 -20.714325 20.714325 -20.714325l86.41385 0l0 0c5.4937744 0 10.762573 2.1824036 14.647278 6.067108c3.8846436 3.884674 6.0670776 9.153442 6.0670776 14.647217l0 82.85483c0 11.440186 -9.274109 20.714325 -20.714355 20.714325l-86.41385 0c-11.440216 0 -20.714325 -9.274139 -20.714325 -20.714325z" fill-rule="evenodd"/><path fill="#ffffff" d="m456.9137 422.97415l0 4.015625l-2.34375 0l0 -11.375l4.4375 0q1.28125 0 2.25 0.46875q0.984375 0.46875 1.5 1.328125q0.53125 0.859375 0.53125 1.96875q0 1.671875 -1.15625 2.640625q-1.140625 0.953125 -3.15625 0.953125l-2.0625 0zm0 -1.890625l2.09375 0q0.9375 0 1.421875 -0.4375q0.484375 -0.4375 0.484375 -1.25q0 -0.84375 -0.5 -1.359375q-0.484375 -0.515625 -1.34375 -0.53125l-2.15625 0l0 3.578125zm12.5859375 -0.4375q-0.46875 -0.0625 -0.8125 -0.0625q-1.28125 0 -1.6875 0.875l0 5.53125l-2.25 0l0 -8.453125l2.125 0l0.0625 1.0q0.6875 -1.15625 1.890625 -1.15625q0.375 0 0.703125 0.09375l-0.03125 2.171875zm3.4609375 6.34375l-2.265625 0l0 -8.453125l2.265625 0l0 8.453125zm-2.390625 -10.640625q0 -0.515625 0.328125 -0.84375q0.34375 -0.328125 0.9375 -0.328125q0.578125 0 0.921875 0.328125q0.34375 0.328125 0.34375 0.84375q0 0.515625 -0.359375 0.84375q-0.34375 0.328125 -0.921875 0.328125q-0.5625 0 -0.90625 -0.328125q-0.34375 -0.328125 -0.34375 -0.84375zm8.8359375 8.296875q0 -0.40625 -0.421875 -0.640625q-0.40625 -0.25 -1.3125 -0.4375q-3.015625 -0.625 -3.015625 -2.5625q0 -1.125 0.9375 -1.875q0.9375 -0.75 2.4375 -0.75q1.609375 0 2.578125 0.765625q0.96875 0.75 0.96875 1.953125l-2.265625 0q0 -0.484375 -0.3125 -0.796875q-0.3125 -0.3125 -0.96875 -0.3125q-0.578125 0 -0.890625 0.265625q-0.3125 0.25 -0.3125 0.640625q0 0.375 0.359375 0.609375q0.359375 0.234375 1.203125 0.40625q0.84375 0.15625 1.421875 0.375q1.78125 0.65625 1.78125 2.265625q0 1.15625 -1.0 1.875q-0.984375 0.71875 -2.546875 0.71875q-1.0625 0 -1.890625 -0.375q-0.828125 -0.390625 -1.296875 -1.046875q-0.46875 -0.65625 -0.46875 -1.421875l2.140625 0q0.03125 0.59375 0.4375 0.921875q0.421875 0.3125 1.125 0.3125q0.640625 0 0.96875 -0.234375q0.34375 -0.25 0.34375 -0.65625zm5.7578125 -6.109375l0.078125 0.9375q0.890625 -1.09375 2.421875 -1.09375q1.640625 0 2.25 1.28125q0.890625 -1.28125 2.53125 -1.28125q1.375 0 2.046875 0.796875q0.671875 0.796875 0.671875 2.40625l0 5.40625l-2.265625 0l0 -5.390625q0 -0.71875 -0.28125 -1.046875q-0.28125 -0.34375 -0.984375 -0.34375q-1.015625 0 -1.40625 0.96875l0 5.8125l-2.25 0l0 -5.390625q0 -0.734375 -0.296875 -1.0625q-0.28125 -0.328125 -0.984375 -0.328125q-0.953125 0 -1.390625 0.796875l0 5.984375l-2.25 0l0 -8.453125l2.109375 0zm15.3671875 4.140625q0 -1.25 0.484375 -2.234375q0.484375 -0.984375 1.390625 -1.515625q0.921875 -0.546875 2.125 -0.546875q1.703125 0 2.78125 1.046875q1.09375 1.046875 1.21875 2.84375l0.015625 0.578125q0 1.9375 -1.09375 3.125q-1.078125 1.171875 -2.90625 1.171875q-1.828125 0 -2.921875 -1.171875q-1.09375 -1.171875 -1.09375 -3.1875l0 -0.109375zm2.265625 0.171875q0 1.203125 0.453125 1.84375q0.453125 0.625 1.296875 0.625q0.8125 0 1.265625 -0.625q0.46875 -0.625 0.46875 -2.015625q0 -1.171875 -0.46875 -1.8125q-0.453125 -0.65625 -1.28125 -0.65625q-0.828125 0 -1.28125 0.640625q-0.453125 0.640625 -0.453125 2.0zm7.75 4.140625l0 -6.796875l-1.25 0l0 -1.65625l1.25 0l0 -0.71875q0 -1.421875 0.8125 -2.203125q0.828125 -0.796875 2.296875 -0.796875q0.46875 0 1.140625 0.15625l-0.015625 1.75q-0.28125 -0.0625 -0.6875 -0.0625q-1.28125 0 -1.28125 1.1875l0 0.6875l1.6875 0l0 1.65625l-1.6875 0l0 6.796875l-2.265625 0zm12.3125 -11.375l2.921875 8.25l2.90625 -8.25l3.078125 0l0 11.375l-2.34375 0l0 -3.109375l0.234375 -5.375l-3.078125 8.484375l-1.609375 0l-3.0625 -8.46875l0.234375 5.359375l0 3.109375l-2.34375 0l0 -11.375l3.0625 0zm13.1875 11.375l-2.265625 0l0 -8.453125l2.265625 0l0 8.453125zm-2.390625 -10.640625q0 -0.515625 0.328125 -0.84375q0.34375 -0.328125 0.9375 -0.328125q0.578125 0 0.921875 0.328125q0.34375 0.328125 0.34375 0.84375q0 0.515625 -0.359375 0.84375q-0.34375 0.328125 -0.921875 0.328125q-0.5625 0 -0.90625 -0.328125q-0.34375 -0.328125 -0.34375 -0.84375zm6.3359375 2.1875l0.0625 0.96875q0.90625 -1.125 2.4375 -1.125q1.34375 0 2.0 0.796875q0.65625 0.78125 0.671875 2.34375l0 5.46875l-2.265625 0l0 -5.40625q0 -0.71875 -0.3125 -1.046875q-0.3125 -0.328125 -1.03125 -0.328125q-0.953125 0 -1.4375 0.8125l0 5.96875l-2.25 0l0 -8.453125l2.125 0zm6.5234375 4.15625q0 -1.96875 0.890625 -3.140625q0.890625 -1.171875 2.421875 -1.171875q1.234375 0 2.046875 0.921875l0 -4.3125l2.265625 0l0 12.0l-2.046875 0l-0.109375 -0.90625q-0.84375 1.0625 -2.171875 1.0625q-1.484375 0 -2.390625 -1.171875q-0.90625 -1.1875 -0.90625 -3.28125zm2.265625 0.171875q0 1.1875 0.40625 1.828125q0.421875 0.625 1.203125 0.625q1.046875 0 1.484375 -0.890625l0 -3.328125q-0.421875 -0.890625 -1.46875 -0.890625q-1.625 0 -1.625 2.65625z" fill-rule="nonzero"/><path fill="#ffffff" d="m479.1754 444.3179q0.625 0 1.015625 -0.34375q0.390625 -0.34375 0.40625 -0.90625l2.109375 0q0 0.859375 -0.46875 1.578125q-0.453125 0.703125 -1.265625 1.109375q-0.796875 0.390625 -1.765625 0.390625q-1.8125 0 -2.859375 -1.15625q-1.046875 -1.15625 -1.046875 -3.1875l0 -0.140625q0 -1.953125 1.03125 -3.109375q1.046875 -1.171875 2.859375 -1.171875q1.59375 0 2.546875 0.90625q0.953125 0.890625 0.96875 2.390625l-2.109375 0q-0.015625 -0.65625 -0.40625 -1.0625q-0.390625 -0.40625 -1.03125 -0.40625q-0.796875 0 -1.203125 0.578125q-0.390625 0.5625 -0.390625 1.859375l0 0.234375q0 1.296875 0.390625 1.875q0.40625 0.5625 1.21875 0.5625zm9.578125 -4.671875q-0.46875 -0.0625 -0.8125 -0.0625q-1.28125 0 -1.6875 0.875l0 5.53125l-2.25 0l0 -8.453125l2.125 0l0.0625 1.0q0.6875 -1.15625 1.890625 -1.15625q0.375 0 0.703125 0.09375l-0.03125 2.171875zm4.828125 6.5q-1.859375 0 -3.03125 -1.140625q-1.171875 -1.140625 -1.171875 -3.046875l0 -0.21875q0 -1.265625 0.484375 -2.265625q0.5 -1.015625 1.40625 -1.546875q0.90625 -0.546875 2.0625 -0.546875q1.734375 0 2.71875 1.09375q1.0 1.09375 1.0 3.09375l0 0.921875l-5.375 0q0.109375 0.828125 0.65625 1.328125q0.546875 0.5 1.390625 0.5q1.3125 0 2.046875 -0.9375l1.109375 1.234375q-0.515625 0.71875 -1.390625 1.125q-0.859375 0.40625 -1.90625 0.40625zm-0.265625 -6.9375q-0.671875 0 -1.09375 0.453125q-0.40625 0.453125 -0.53125 1.296875l3.140625 0l0 -0.1875q-0.015625 -0.75 -0.40625 -1.15625q-0.390625 -0.40625 -1.109375 -0.40625zm9.9140625 6.78125q-0.15625 -0.3125 -0.21875 -0.765625q-0.828125 0.921875 -2.140625 0.921875q-1.234375 0 -2.0625 -0.71875q-0.8125 -0.71875 -0.8125 -1.8125q0 -1.34375 1.0 -2.0625q1.0 -0.71875 2.875 -0.734375l1.046875 0l0 -0.484375q0 -0.578125 -0.3125 -0.921875q-0.296875 -0.359375 -0.9375 -0.359375q-0.578125 0 -0.90625 0.28125q-0.3125 0.265625 -0.3125 0.734375l-2.265625 0q0 -0.734375 0.453125 -1.359375q0.453125 -0.625 1.28125 -0.96875q0.828125 -0.359375 1.859375 -0.359375q1.5625 0 2.484375 0.78125q0.921875 0.78125 0.921875 2.203125l0 3.671875q0 1.203125 0.328125 1.8125l0 0.140625l-2.28125 0zm-1.859375 -1.578125q0.5 0 0.921875 -0.21875q0.421875 -0.21875 0.625 -0.59375l0 -1.453125l-0.84375 0q-1.703125 0 -1.8125 1.171875l0 0.125q0 0.421875 0.296875 0.703125q0.296875 0.265625 0.8125 0.265625zm8.25 -8.953125l0 2.078125l1.4375 0l0 1.65625l-1.4375 0l0 4.21875q0 0.46875 0.171875 0.671875q0.1875 0.203125 0.6875 0.203125q0.375 0 0.671875 -0.0625l0 1.71875q-0.671875 0.203125 -1.375 0.203125q-2.375 0 -2.421875 -2.40625l0 -4.546875l-1.234375 0l0 -1.65625l1.234375 0l0 -2.078125l2.265625 0zm5.078125 10.53125l-2.265625 0l0 -8.453125l2.265625 0l0 8.453125zm-2.390625 -10.640625q0 -0.515625 0.328125 -0.84375q0.34375 -0.328125 0.9375 -0.328125q0.578125 0 0.921875 0.328125q0.34375 0.328125 0.34375 0.84375q0 0.515625 -0.359375 0.84375q-0.34375 0.328125 -0.921875 0.328125q-0.5625 0 -0.90625 -0.328125q-0.34375 -0.328125 -0.34375 -0.84375zm6.3359375 2.1875l0.0625 0.96875q0.90625 -1.125 2.4375 -1.125q1.34375 0 2.0 0.796875q0.65625 0.78125 0.671875 2.34375l0 5.46875l-2.265625 0l0 -5.40625q0 -0.71875 -0.3125 -1.046875q-0.3125 -0.328125 -1.03125 -0.328125q-0.953125 0 -1.4375 0.8125l0 5.96875l-2.25 0l0 -8.453125l2.125 0zm6.5546875 4.15625q0 -1.9375 0.921875 -3.125q0.921875 -1.1875 2.5 -1.1875q1.390625 0 2.15625 0.953125l0.09375 -0.796875l2.046875 0l0 8.171875q0 1.109375 -0.5 1.921875q-0.5 0.828125 -1.421875 1.25q-0.90625 0.4375 -2.140625 0.4375q-0.921875 0 -1.8125 -0.375q-0.875 -0.359375 -1.328125 -0.953125l1.0 -1.375q0.84375 0.953125 2.046875 0.953125q0.890625 0 1.390625 -0.484375q0.5 -0.484375 0.5 -1.375l0 -0.453125q-0.78125 0.890625 -2.046875 0.890625q-1.53125 0 -2.46875 -1.1875q-0.9375 -1.203125 -0.9375 -3.171875l0 -0.09375zm2.25 0.171875q0 1.140625 0.453125 1.796875q0.46875 0.65625 1.28125 0.65625q1.03125 0 1.46875 -0.78125l0 -3.546875q-0.453125 -0.78125 -1.453125 -0.78125q-0.8125 0 -1.28125 0.671875q-0.46875 0.65625 -0.46875 1.984375z" fill-rule="nonzero"/><path fill="#ffffff" d="m473.8551 460.6929q0 -1.96875 0.890625 -3.140625q0.890625 -1.171875 2.421875 -1.171875q1.234375 0 2.046875 0.921875l0 -4.3125l2.265625 0l0 12.0l-2.046875 0l-0.109375 -0.90625q-0.84375 1.0625 -2.171875 1.0625q-1.484375 0 -2.390625 -1.171875q-0.90625 -1.1875 -0.90625 -3.28125zm2.265625 0.171875q0 1.1875 0.40625 1.828125q0.421875 0.625 1.203125 0.625q1.046875 0 1.484375 -0.890625l0 -3.328125q-0.421875 -0.890625 -1.46875 -0.890625q-1.625 0 -1.625 2.65625zm9.484375 4.125l-2.265625 0l0 -8.453125l2.265625 0l0 8.453125zm-2.390625 -10.640625q0 -0.515625 0.328125 -0.84375q0.34375 -0.328125 0.9375 -0.328125q0.578125 0 0.921875 0.328125q0.34375 0.328125 0.34375 0.84375q0 0.515625 -0.359375 0.84375q-0.34375 0.328125 -0.921875 0.328125q-0.5625 0 -0.90625 -0.328125q-0.34375 -0.328125 -0.34375 -0.84375zm4.8671875 10.640625l0 -6.796875l-1.25 0l0 -1.65625l1.25 0l0 -0.71875q0 -1.421875 0.8125 -2.203125q0.828125 -0.796875 2.296875 -0.796875q0.46875 0 1.140625 0.15625l-0.015625 1.75q-0.28125 -0.0625 -0.6875 -0.0625q-1.28125 0 -1.28125 1.1875l0 0.6875l1.6875 0l0 1.65625l-1.6875 0l0 6.796875l-2.265625 0zm5.734375 0l0 -6.796875l-1.25 0l0 -1.65625l1.25 0l0 -0.71875q0 -1.421875 0.8125 -2.203125q0.828125 -0.796875 2.296875 -0.796875q0.46875 0 1.140625 0.15625l-0.015625 1.75q-0.28125 -0.0625 -0.6875 -0.0625q-1.28125 0 -1.28125 1.1875l0 0.6875l1.6875 0l0 1.65625l-1.6875 0l0 6.796875l-2.265625 0zm8.828125 0.15625q-1.859375 0 -3.03125 -1.140625q-1.171875 -1.140625 -1.171875 -3.046875l0 -0.21875q0 -1.265625 0.484375 -2.265625q0.5 -1.015625 1.40625 -1.546875q0.90625 -0.546875 2.0625 -0.546875q1.734375 0 2.71875 1.09375q1.0 1.09375 1.0 3.09375l0 0.921875l-5.375 0q0.109375 0.828125 0.65625 1.328125q0.546875 0.5 1.390625 0.5q1.3125 0 2.046875 -0.9375l1.109375 1.234375q-0.515625 0.71875 -1.390625 1.125q-0.859375 0.40625 -1.90625 0.40625zm-0.265625 -6.9375q-0.671875 0 -1.09375 0.453125q-0.40625 0.453125 -0.53125 1.296875l3.140625 0l0 -0.1875q-0.015625 -0.75 -0.40625 -1.15625q-0.390625 -0.40625 -1.109375 -0.40625zm9.7734375 0.4375q-0.46875 -0.0625 -0.8125 -0.0625q-1.28125 0 -1.6875 0.875l0 5.53125l-2.25 0l0 -8.453125l2.125 0l0.0625 1.0q0.6875 -1.15625 1.890625 -1.15625q0.375 0 0.703125 0.09375l-0.03125 2.171875zm4.828125 6.5q-1.859375 0 -3.03125 -1.140625q-1.171875 -1.140625 -1.171875 -3.046875l0 -0.21875q0 -1.265625 0.484375 -2.265625q0.5 -1.015625 1.40625 -1.546875q0.90625 -0.546875 2.0625 -0.546875q1.734375 0 2.71875 1.09375q1.0 1.09375 1.0 3.09375l0 0.921875l-5.375 0q0.109375 0.828125 0.65625 1.328125q0.546875 0.5 1.390625 0.5q1.3125 0 2.046875 -0.9375l1.109375 1.234375q-0.515625 0.71875 -1.390625 1.125q-0.859375 0.40625 -1.90625 0.40625zm-0.265625 -6.9375q-0.671875 0 -1.09375 0.453125q-0.40625 0.453125 -0.53125 1.296875l3.140625 0l0 -0.1875q-0.015625 -0.75 -0.40625 -1.15625q-0.390625 -0.40625 -1.109375 -0.40625zm7.1015625 -1.671875l0.0625 0.96875q0.90625 -1.125 2.4375 -1.125q1.34375 0 2.0 0.796875q0.65625 0.78125 0.671875 2.34375l0 5.46875l-2.265625 0l0 -5.40625q0 -0.71875 -0.3125 -1.046875q-0.3125 -0.328125 -1.03125 -0.328125q-0.953125 0 -1.4375 0.8125l0 5.96875l-2.25 0l0 -8.453125l2.125 0zm9.5859375 -2.078125l0 2.078125l1.4375 0l0 1.65625l-1.4375 0l0 4.21875q0 0.46875 0.171875 0.671875q0.1875 0.203125 0.6875 0.203125q0.375 0 0.671875 -0.0625l0 1.71875q-0.671875 0.203125 -1.375 0.203125q-2.375 0 -2.421875 -2.40625l0 -4.546875l-1.234375 0l0 -1.65625l1.234375 0l0 -2.078125l2.265625 0z" fill-rule="nonzero"/><path fill="#ffffff" d="m464.4254 479.97415l0 4.015625l-2.34375 0l0 -11.375l4.4375 0q1.28125 0 2.25 0.46875q0.984375 0.46875 1.5 1.328125q0.53125 0.859375 0.53125 1.96875q0 1.671875 -1.15625 2.640625q-1.140625 0.953125 -3.15625 0.953125l-2.0625 0zm0 -1.890625l2.09375 0q0.9375 0 1.421875 -0.4375q0.484375 -0.4375 0.484375 -1.25q0 -0.84375 -0.5 -1.359375q-0.484375 -0.515625 -1.34375 -0.53125l-2.15625 0l0 3.578125zm11.625 6.0625q-1.859375 0 -3.03125 -1.140625q-1.171875 -1.140625 -1.171875 -3.046875l0 -0.21875q0 -1.265625 0.484375 -2.265625q0.5 -1.015625 1.40625 -1.546875q0.90625 -0.546875 2.0625 -0.546875q1.734375 0 2.71875 1.09375q1.0 1.09375 1.0 3.09375l0 0.921875l-5.375 0q0.109375 0.828125 0.65625 1.328125q0.546875 0.5 1.390625 0.5q1.3125 0 2.046875 -0.9375l1.109375 1.234375q-0.515625 0.71875 -1.390625 1.125q-0.859375 0.40625 -1.90625 0.40625zm-0.265625 -6.9375q-0.671875 0 -1.09375 0.453125q-0.40625 0.453125 -0.53125 1.296875l3.140625 0l0 -0.1875q-0.015625 -0.75 -0.40625 -1.15625q-0.390625 -0.40625 -1.109375 -0.40625zm9.7734375 0.4375q-0.46875 -0.0625 -0.8125 -0.0625q-1.28125 0 -1.6875 0.875l0 5.53125l-2.25 0l0 -8.453125l2.125 0l0.0625 1.0q0.6875 -1.15625 1.890625 -1.15625q0.375 0 0.703125 0.09375l-0.03125 2.171875zm4.453125 4.671875q0.625 0 1.015625 -0.34375q0.390625 -0.34375 0.40625 -0.90625l2.109375 0q0 0.859375 -0.46875 1.578125q-0.453125 0.703125 -1.265625 1.109375q-0.796875 0.390625 -1.765625 0.390625q-1.8125 0 -2.859375 -1.15625q-1.046875 -1.15625 -1.046875 -3.1875l0 -0.140625q0 -1.953125 1.03125 -3.109375q1.046875 -1.171875 2.859375 -1.171875q1.59375 0 2.546875 0.90625q0.953125 0.890625 0.96875 2.390625l-2.109375 0q-0.015625 -0.65625 -0.40625 -1.0625q-0.390625 -0.40625 -1.03125 -0.40625q-0.796875 0 -1.203125 0.578125q-0.390625 0.5625 -0.390625 1.859375l0 0.234375q0 1.296875 0.390625 1.875q0.40625 0.5625 1.21875 0.5625zm8.71875 1.828125q-1.859375 0 -3.03125 -1.140625q-1.171875 -1.140625 -1.171875 -3.046875l0 -0.21875q0 -1.265625 0.484375 -2.265625q0.5 -1.015625 1.40625 -1.546875q0.90625 -0.546875 2.0625 -0.546875q1.734375 0 2.71875 1.09375q1.0 1.09375 1.0 3.09375l0 0.921875l-5.375 0q0.109375 0.828125 0.65625 1.328125q0.546875 0.5 1.390625 0.5q1.3125 0 2.046875 -0.9375l1.109375 1.234375q-0.515625 0.71875 -1.390625 1.125q-0.859375 0.40625 -1.90625 0.40625zm-0.265625 -6.9375q-0.671875 0 -1.09375 0.453125q-0.40625 0.453125 -0.53125 1.296875l3.140625 0l0 -0.1875q-0.015625 -0.75 -0.40625 -1.15625q-0.390625 -0.40625 -1.109375 -0.40625zm12.6328125 2.625q0 1.953125 -0.890625 3.140625q-0.890625 1.171875 -2.390625 1.171875q-1.28125 0 -2.078125 -0.890625l0 3.984375l-2.25 0l0 -11.703125l2.09375 0l0.078125 0.828125q0.8125 -0.984375 2.140625 -0.984375q1.5625 0 2.421875 1.15625q0.875 1.15625 0.875 3.1875l0 0.109375zm-2.265625 -0.15625q0 -1.1875 -0.421875 -1.828125q-0.40625 -0.640625 -1.203125 -0.640625q-1.0625 0 -1.46875 0.8125l0 3.46875q0.421875 0.828125 1.484375 0.828125q1.609375 0 1.609375 -2.640625zm6.3671875 -6.21875l0 2.078125l1.4375 0l0 1.65625l-1.4375 0l0 4.21875q0 0.46875 0.171875 0.671875q0.1875 0.203125 0.6875 0.203125q0.375 0 0.671875 -0.0625l0 1.71875q-0.671875 0.203125 -1.375 0.203125q-2.375 0 -2.421875 -2.40625l0 -4.546875l-1.234375 0l0 -1.65625l1.234375 0l0 -2.078125l2.265625 0zm5.078125 10.53125l-2.265625 0l0 -8.453125l2.265625 0l0 8.453125zm-2.390625 -10.640625q0 -0.515625 0.328125 -0.84375q0.34375 -0.328125 0.9375 -0.328125q0.578125 0 0.921875 0.328125q0.34375 0.328125 0.34375 0.84375q0 0.515625 -0.359375 0.84375q-0.34375 0.328125 -0.921875 0.328125q-0.5625 0 -0.90625 -0.328125q-0.34375 -0.328125 -0.34375 -0.84375zm3.8984375 6.328125q0 -1.25 0.484375 -2.234375q0.484375 -0.984375 1.390625 -1.515625q0.921875 -0.546875 2.125 -0.546875q1.703125 0 2.78125 1.046875q1.09375 1.046875 1.21875 2.84375l0.015625 0.578125q0 1.9375 -1.09375 3.125q-1.078125 1.171875 -2.90625 1.171875q-1.828125 0 -2.921875 -1.171875q-1.09375 -1.171875 -1.09375 -3.1875l0 -0.109375zm2.265625 0.171875q0 1.203125 0.453125 1.84375q0.453125 0.625 1.296875 0.625q0.8125 0 1.265625 -0.625q0.46875 -0.625 0.46875 -2.015625q0 -1.171875 -0.46875 -1.8125q-0.453125 -0.65625 -1.28125 -0.65625q-0.828125 0 -1.28125 0.640625q-0.453125 0.640625 -0.453125 2.0zm9.21875 -4.3125l0.0625 0.96875q0.90625 -1.125 2.4375 -1.125q1.34375 0 2.0 0.796875q0.65625 0.78125 0.671875 2.34375l0 5.46875l-2.265625 0l0 -5.40625q0 -0.71875 -0.3125 -1.046875q-0.3125 -0.328125 -1.03125 -0.328125q-0.953125 0 -1.4375 0.8125l0 5.96875l-2.25 0l0 -8.453125l2.125 0zm11.4609375 6.109375q0 -0.40625 -0.421875 -0.640625q-0.40625 -0.25 -1.3125 -0.4375q-3.015625 -0.625 -3.015625 -2.5625q0 -1.125 0.9375 -1.875q0.9375 -0.75 2.4375 -0.75q1.609375 0 2.578125 0.765625q0.96875 0.75 0.96875 1.953125l-2.265625 0q0 -0.484375 -0.3125 -0.796875q-0.3125 -0.3125 -0.96875 -0.3125q-0.578125 0 -0.890625 0.265625q-0.3125 0.25 -0.3125 0.640625q0 0.375 0.359375 0.609375q0.359375 0.234375 1.203125 0.40625q0.84375 0.15625 1.421875 0.375q1.78125 0.65625 1.78125 2.265625q0 1.15625 -1.0 1.875q-0.984375 0.71875 -2.546875 0.71875q-1.0625 0 -1.890625 -0.375q-0.828125 -0.390625 -1.296875 -1.046875q-0.46875 -0.65625 -0.46875 -1.421875l2.140625 0q0.03125 0.59375 0.4375 0.921875q0.421875 0.3125 1.125 0.3125q0.640625 0 0.96875 -0.234375q0.34375 -0.25 0.34375 -0.65625z" fill-rule="nonzero"/><defs><radialGradient id="p.3" gradientUnits="userSpaceOnUse" gradientTransform="matrix(10.030288570740924 0.0 0.0 10.030288570740924 0.0 0.0)" spreadMethod="pad" cx="8.439660571487972" cy="7.1229139008197295" fx="8.439660571487972" fy="7.1229139008197295" r="10.030288696289062"><stop offset="0.0" stop-color="#f05bb2"/><stop offset="1.0" stop-color="#b11871"/></radialGradient></defs><path fill="url(#p.3)" d="m6.7939634 28.967617l0 0c0 -11.730125 9.509145 -21.239271 21.23927 -21.239271l113.23799 0c5.633011 0 11.035294 2.2377028 15.018433 6.220838c3.983139 3.9831352 6.2208405 9.385427 6.2208405 15.018433l0 84.95453c0 11.730125 -9.50914 21.239273 -21.239273 21.239273l-113.23799 0l0 0c-11.730125 0 -21.23927 -9.509148 -21.23927 -21.239273z" fill-rule="evenodd"/><path fill="#ffffff" d="m36.482277 52.598003q2.21875 0 3.875 0.890625q1.671875 0.875 2.578125 2.46875q0.90625 1.59375 0.90625 3.671875q0 2.0625 -0.90625 3.65625q-0.90625 1.5937538 -2.578125 2.4843788q-1.671875 0.875 -3.875 0.875l-5.265625 0l0 -14.046879l5.265625 0zm-0.21875 11.09375q1.9375 0 3.015625 -1.0625q1.078125 -1.0625 1.078125 -3.0q0 -1.9375 -1.078125 -3.015625q-1.078125 -1.09375 -3.015625 -1.09375l-1.625 0l0 8.171875l1.625 0zm11.211868 -9.359375q-0.890625 0 -1.46875 -0.53125q-0.5625 -0.53125 -0.5625 -1.3125q0 -0.796875 0.5625 -1.328125q0.578125 -0.53125 1.46875 -0.53125q0.890625 0 1.453125 0.53125q0.578125 0.53125 0.578125 1.328125q0 0.78125 -0.578125 1.3125q-0.5625 0.53125 -1.453125 0.53125zm1.703125 1.15625l0 11.156254l-3.421875 0l0 -11.156254l3.421875 0zm7.024994 11.312504q-1.46875 0 -2.609375 -0.5q-1.125 -0.5 -1.796875 -1.359375q-0.65625 -0.875 -0.734375 -1.9531288l3.375 0q0.0625 0.578125 0.546875 0.9375q0.484375 0.3593788 1.171875 0.3593788q0.640625 0 0.984375 -0.25q0.359375 -0.2500038 0.359375 -0.6562538q0 -0.46875 -0.5 -0.703125q-0.5 -0.234375 -1.625 -0.515625q-1.1875 -0.28125 -2.0 -0.578125q-0.796875 -0.3125 -1.375 -0.984375q-0.578125 -0.671875 -0.578125 -1.8125q0 -0.953125 0.53125 -1.75q0.53125 -0.796875 1.5625 -1.25q1.03125 -0.453125 2.453125 -0.453125q2.09375 0 3.296875 1.046875q1.21875 1.03125 1.390625 2.75l-3.15625 0q-0.078125 -0.578125 -0.515625 -0.921875q-0.421875 -0.34375 -1.125 -0.34375q-0.59375 0 -0.921875 0.234375q-0.3125 0.234375 -0.3125 0.625q0 0.484375 0.5 0.734375q0.515625 0.234375 1.59375 0.46875q1.25 0.3125 2.015625 0.625q0.78125 0.3125 1.375 1.0q0.59375 0.6875 0.609375 1.859375q0 0.9687538 -0.546875 1.7500038q-0.546875 0.765625 -1.578125 1.203125q-1.03125 0.4375 -2.390625 0.4375zm10.034988 -9.734379q0.5 -0.78125 1.375 -1.25q0.890625 -0.484375 2.0625 -0.484375q1.390625 0 2.5 0.703125q1.125 0.6875 1.765625 2.0q0.65625 1.296875 0.65625 3.015625q0 1.71875 -0.65625 3.0312538q-0.640625 1.296875 -1.765625 2.015625q-1.109375 0.703125 -2.5 0.703125q-1.15625 0 -2.046875 -0.46875q-0.890625 -0.484375 -1.390625 -1.25l0 6.875l-3.421875 0l0 -16.468754l3.421875 0l0 1.578125zm4.890625 3.984375q0 -1.28125 -0.71875 -2.015625q-0.703125 -0.734375 -1.75 -0.734375q-1.015625 0 -1.734375 0.75q-0.703125 0.734375 -0.703125 2.015625q0 1.28125 0.703125 2.03125q0.71875 0.734375 1.734375 0.734375q1.015625 0 1.734375 -0.75q0.734375 -0.75 0.734375 -2.03125zm15.798737 -0.171875q0 0.484375 -0.0625 1.0l-7.75 0q0.09375 1.046875 0.671875 1.59375q0.59375 0.5468788 1.453125 0.5468788q1.28125 0 1.78125 -1.0781288l3.640625 0q-0.28125 1.1093788 -1.015625 1.9843788q-0.71875 0.875 -1.828125 1.375q-1.09375 0.5 -2.453125 0.5q-1.640625 0 -2.921875 -0.6875q-1.28125 -0.703125 -2.0 -2.0q-0.71875 -1.3125038 -0.71875 -3.0468788q0 -1.734375 0.703125 -3.03125q0.71875 -1.3125 2.0 -2.0q1.28125 -0.703125 2.9375 -0.703125q1.609375 0 2.875 0.6875q1.265625 0.671875 1.96875 1.9375q0.71875 1.25 0.71875 2.921875zm-3.5 -0.890625q0 -0.890625 -0.609375 -1.40625q-0.59375 -0.515625 -1.5 -0.515625q-0.859375 0 -1.453125 0.5q-0.578125 0.5 -0.71875 1.421875l4.28125 0zm8.710617 -2.640625q0.609375 -0.921875 1.5 -1.453125q0.90625 -0.53125 2.0 -0.53125l0 3.625l-0.9375 0q-1.28125 0 -1.921875 0.546875q-0.640625 0.546875 -0.640625 1.921875l0 5.187504l-3.421875 0l0 -11.156254l3.421875 0l0 1.859375zm9.684998 9.453129q-1.46875 0 -2.609375 -0.5q-1.125 -0.5 -1.796875 -1.359375q-0.65625 -0.875 -0.734375 -1.9531288l3.375 0q0.0625 0.578125 0.546875 0.9375q0.484375 0.3593788 1.171875 0.3593788q0.640625 0 0.984375 -0.25q0.359375 -0.2500038 0.359375 -0.6562538q0 -0.46875 -0.5 -0.703125q-0.5 -0.234375 -1.625 -0.515625q-1.1875 -0.28125 -2.0 -0.578125q-0.796875 -0.3125 -1.375 -0.984375q-0.578125 -0.671875 -0.578125 -1.8125q0 -0.953125 0.53125 -1.75q0.53125 -0.796875 1.5625 -1.25q1.03125 -0.453125 2.453125 -0.453125q2.09375 0 3.296875 1.046875q1.21875 1.03125 1.390625 2.75l-3.15625 0q-0.078125 -0.578125 -0.515625 -0.921875q-0.421875 -0.34375 -1.125 -0.34375q-0.59375 0 -0.921875 0.234375q-0.3125 0.234375 -0.3125 0.625q0 0.484375 0.5 0.734375q0.515625 0.234375 1.59375 0.46875q1.25 0.3125 2.015625 0.625q0.78125 0.3125 1.375 1.0q0.59375 0.6875 0.609375 1.859375q0 0.9687538 -0.546875 1.7500038q-0.546875 0.765625 -1.578125 1.203125q-1.03125 0.4375 -2.390625 0.4375zm8.331863 -12.468754q-0.890625 0 -1.46875 -0.53125q-0.5625 -0.53125 -0.5625 -1.3125q0 -0.796875 0.5625 -1.328125q0.578125 -0.53125 1.46875 -0.53125q0.890625 0 1.453125 0.53125q0.578125 0.53125 0.578125 1.328125q0 0.78125 -0.578125 1.3125q-0.5625 0.53125 -1.453125 0.53125zm1.703125 1.15625l0 11.156254l-3.421875 0l0 -11.156254l3.421875 0zm7.556244 11.312504q-1.625 0 -2.9375 -0.6875q-1.3125 -0.703125 -2.0625 -2.0q-0.75 -1.3125038 -0.75 -3.0468788q0 -1.71875 0.75 -3.03125q0.765625 -1.3125 2.078125 -2.0q1.328125 -0.703125 2.96875 -0.703125q1.640625 0 2.953125 0.703125q1.328125 0.6875 2.078125 2.0q0.765625 1.3125 0.765625 3.03125q0 1.71875 -0.765625 3.0312538q-0.765625 1.3125 -2.109375 2.015625q-1.328125 0.6875 -2.96875 0.6875zm0 -2.9531288q0.984375 0 1.671875 -0.71875q0.703125 -0.71875 0.703125 -2.0625q0 -1.34375 -0.671875 -2.0625q-0.671875 -0.71875 -1.65625 -0.71875q-1.0 0 -1.65625 0.71875q-0.65625 0.703125 -0.65625 2.0625q0 1.34375 0.640625 2.0625q0.65625 0.71875 1.625 0.71875zm14.474373 -8.484375q1.953125 0 3.125 1.28125q1.171875 1.265625 1.171875 3.484375l0 6.515629l-3.40625 0l0 -6.062504q0 -1.125 -0.578125 -1.734375q-0.578125 -0.625 -1.5625 -0.625q-0.984375 0 -1.5625 0.625q-0.578125 0.609375 -0.578125 1.734375l0 6.062504l-3.4218826 0l0 -11.156254l3.4218826 0l0 1.46875q0.53125 -0.734375 1.40625 -1.15625q0.875 -0.4375 1.984375 -0.4375z" fill-rule="nonzero"/><path fill="#ffffff" d="m80.994736 90.80113q-1.625 0 -2.9375 -0.6875q-1.3125 -0.703125 -2.0625 -2.0q-0.75 -1.3125 -0.75 -3.046875q0 -1.71875 0.75 -3.03125q0.765625 -1.3125 2.078125 -2.0q1.328125 -0.703125 2.96875 -0.703125q1.640625 0 2.953125 0.703125q1.328125 0.6875 2.078125 2.0q0.765625 1.3125 0.765625 3.03125q0 1.71875 -0.765625 3.03125q-0.765625 1.3125 -2.109375 2.015625q-1.328125 0.6875 -2.96875 0.6875zm0 -2.953125q0.984375 0 1.671875 -0.71875q0.703125 -0.71875 0.703125 -2.0625q0 -1.34375 -0.671875 -2.0625q-0.671875 -0.71875 -1.65625 -0.71875q-1.0 0 -1.65625 0.71875q-0.65625 0.703125 -0.65625 2.0625q0 1.34375 0.640625 2.0625q0.65625 0.71875 1.625 0.71875zm13.27124 -5.515625l-1.84375 0l0 8.3125l-3.421875 0l0 -8.3125l-1.234375 0l0 -2.84375l1.234375 0l0 -0.328125q0 -2.0625 1.171875 -3.125q1.1875 -1.078125 3.46875 -1.078125q0.375 0 0.5625 0.03125l0 2.890625q-0.984375 -0.046875 -1.390625 0.296875q-0.390625 0.328125 -0.390625 1.203125l0 0.109375l1.84375 0l0 2.84375z" fill-rule="nonzero"/><path fill="#ffffff" d="m76.13288 100.59801l0 14.046875l-3.421875 0l0 -8.421875l-3.140625 8.421875l-2.765625 0l-3.15625 -8.4375l0 8.4375l-3.421875 0l0 -14.046875l4.046875 0l3.9375 9.734375l3.90625 -9.734375l4.015625 0zm4.1724854 1.734375q-0.890625 0 -1.46875 -0.53125q-0.5625 -0.53125 -0.5625 -1.3125q0 -0.796875 0.5625 -1.328125q0.578125 -0.53125 1.46875 -0.53125q0.890625 0 1.453125 0.53125q0.578125 0.53125 0.578125 1.328125q0 0.78125 -0.578125 1.3125q-0.5625 0.53125 -1.453125 0.53125zm1.703125 1.15625l0 11.15625l-3.421875 0l0 -11.15625l3.421875 0zm9.290619 -0.125q1.953125 0 3.125 1.28125q1.171875 1.265625 1.171875 3.484375l0 6.515625l-3.40625 0l0 -6.0625q0 -1.125 -0.578125 -1.734375q-0.578125 -0.625 -1.5625 -0.625q-0.984375 0 -1.5625 0.625q-0.578125 0.609375 -0.578125 1.734375l0 6.0625l-3.421875 0l0 -11.15625l3.421875 0l0 1.46875q0.53125 -0.734375 1.40625 -1.15625q0.875 -0.4375 1.984375 -0.4375zm5.9956055 5.6875q0 -1.71875 0.640625 -3.015625q0.65625 -1.3125 1.765625 -2.0q1.125 -0.703125 2.515625 -0.703125q1.09375 0 2.0 0.453125q0.921875 0.453125 1.4375 1.234375l0 -5.171875l3.421875 0l0 14.796875l-3.421875 0l0 -1.59375q-0.484375 0.796875 -1.375 1.28125q-0.890625 0.46875 -2.0625 0.46875q-1.390625 0 -2.515625 -0.703125q-1.109375 -0.71875 -1.765625 -2.015625q-0.640625 -1.3125 -0.640625 -3.03125zm8.359375 0.015625q0 -1.28125 -0.71875 -2.015625q-0.703125 -0.75 -1.71875 -0.75q-1.03125 0 -1.734375 0.734375q-0.703125 0.734375 -0.703125 2.015625q0 1.28125 0.703125 2.03125q0.703125 0.75 1.734375 0.75q1.015625 0 1.71875 -0.734375q0.71875 -0.75 0.71875 -2.03125z" fill-rule="nonzero"/><path fill="#9400d3" d="m366.16928 80.497375l62.393707 0l0 50.11023l-62.393707 0z" fill-rule="evenodd"/><path fill="#ffffff" d="m391.5627 100.46124l0 -6.375l10.390625 0l0 22.40625l-7.140625 0l0 -16.03125l-3.25 0z" fill-rule="nonzero"/><path fill="#4b0082" d="m366.16928 130.61023l62.393707 0l0 50.110245l-62.393707 0z" fill-rule="evenodd"/><path fill="#ffffff" d="m389.54977 161.18347q4.109375 -3.0625 6.5 -5.5625q2.390625 -2.5 2.390625 -4.6875q0 -0.734375 -0.328125 -1.125q-0.3125 -0.40625 -0.84375 -0.40625q-0.609375 0 -0.96875 0.640625q-0.34375 0.625 -0.25 1.90625l-6.59375 0q0.09375 -2.84375 1.234375 -4.6875q1.15625 -1.84375 3.0 -2.703125q1.84375 -0.859375 4.046875 -0.859375q3.921875 0 5.734375 1.890625q1.828125 1.890625 1.828125 4.828125q0 3.09375 -1.984375 5.8125q-1.96875 2.703125 -4.9375 4.578125l7.015625 0l0 5.484375l-15.84375 0l0 -5.109375z" fill-rule="nonzero"/><path fill="#0000ff" d="m366.16928 180.7231l62.393707 0l0 50.11023l-62.393707 0z" fill-rule="evenodd"/><path fill="#ffffff" d="m389.3143 201.32759q0.09375 -3.640625 2.125 -5.578125q2.046875 -1.9375 5.78125 -1.9375q2.421875 0 4.140625 0.828125q1.71875 0.828125 2.59375 2.25q0.875 1.40625 0.875 3.1875q0 2.140625 -1.015625 3.359375q-1.0 1.203125 -2.265625 1.625l0 0.125q3.6875 1.390625 3.6875 5.125q0 1.96875 -0.921875 3.46875q-0.921875 1.5 -2.625 2.328125q-1.703125 0.828125 -4.03125 0.828125q-3.984375 0 -6.25 -1.90625q-2.265625 -1.90625 -2.328125 -5.953125l6.609375 0q-0.0625 1.109375 0.328125 1.6875q0.390625 0.5625 1.328125 0.5625q0.5625 0 0.921875 -0.40625q0.375 -0.421875 0.375 -1.09375q0 -0.859375 -0.578125 -1.296875q-0.5625 -0.453125 -1.90625 -0.453125l-1.140625 0l0 -5.484375l1.109375 0q2.078125 0.109375 2.078125 -1.65625q0 -0.765625 -0.328125 -1.140625q-0.3125 -0.375 -0.796875 -0.375q-1.140625 0 -1.140625 1.90625l-6.625 0z" fill-rule="nonzero"/><path fill="#00ff00" d="m366.16928 230.83333l62.393707 0l0 50.110245l-62.393707 0z" fill-rule="evenodd"/><path fill="#ffffff" d="m388.16885 263.45346l0 -5.671875l9.140625 -13.031265l7.328125 0l0 12.812515l2.203125 0l0 5.890625l-2.203125 0l0 3.375l-6.875 0l0 -3.375l-9.59375 0zm10.140625 -10.937515l-3.296875 5.0468903l3.296875 0l0 -5.0468903z" fill-rule="nonzero"/><path fill="#ffff00" d="m366.16928 280.97507l62.393707 0l0 50.11023l-62.393707 0z" fill-rule="evenodd"/><path fill="#ffffff" d="m405.1558 300.53268l-8.890625 0l0 2.578125q0.578125 -0.515625 1.515625 -0.8125q0.9375 -0.3125 2.09375 -0.3125q2.09375 0 3.53125 0.984375q1.4375 0.96875 2.140625 2.609375q0.703125 1.640625 0.703125 3.640625q0 3.671875 -2.0625 5.71875q-2.0625 2.03125 -5.6875 2.03125q-2.640625 0 -4.5625 -0.921875q-1.90625 -0.921875 -2.90625 -2.546875q-0.984375 -1.625 -0.9375 -3.703125l6.625 0q0 0.484375 0.328125 0.921875q0.34375 0.421875 1.109375 0.421875q0.78125 0 1.140625 -0.546875q0.375 -0.546875 0.375 -1.5q0 -0.890625 -0.421875 -1.34375q-0.40625 -0.46875 -1.171875 -0.46875q-0.65625 0 -1.0 0.3125q-0.328125 0.296875 -0.328125 0.703125l-6.625 0l0 -13.734375l15.03125 0l0 5.96875z" fill-rule="nonzero"/><path fill="#ff7f00" d="m366.16928 331.1168l62.393707 0l0 50.11023l-62.393707 0z" fill-rule="evenodd"/><path fill="#ffffff" d="m398.85092 351.50253q-0.1875 -0.921875 -0.546875 -1.34375q-0.34375 -0.421875 -1.078125 -0.421875q-1.15625 0 -1.546875 1.1875q-0.375 1.171875 -0.375 3.65625q0.546875 -0.859375 1.578125 -1.34375q1.046875 -0.5 2.375 -0.5q2.9375 0 4.703125 1.8125q1.765625 1.796875 1.765625 5.234375q0 2.296875 -0.96875 4.0q-0.96875 1.703125 -2.75 2.625q-1.78125 0.921875 -4.203125 0.921875q-4.8125 0 -6.6875 -2.953125q-1.859375 -2.96875 -1.859375 -8.296875q0 -4.171875 0.859375 -6.75q0.859375 -2.578125 2.703125 -3.796875q1.859375 -1.234375 4.84375 -1.234375q3.640625 0 5.484375 2.09375q1.859375 2.078125 2.046875 5.109375l-6.34375 0zm-1.28125 6.4375q-0.828125 0 -1.328125 0.46875q-0.484375 0.453125 -0.484375 1.28125q0 0.921875 0.46875 1.375q0.484375 0.4375 1.34375 0.4375q0.859375 0 1.328125 -0.4375q0.46875 -0.453125 0.46875 -1.375q0 -0.828125 -0.484375 -1.28125q-0.484375 -0.46875 -1.3125 -0.46875z" fill-rule="nonzero"/><path fill="#ff0000" d="m366.16928 381.25723l62.393707 0l0 50.11023l-62.393707 0z" fill-rule="evenodd"/><path fill="#ffffff" d="m404.90875 399.8461l-6.984375 17.40625l-7.0 0l7.0625 -16.578125l-7.921875 0l0 -5.828125l14.84375 0l0 5.0z" fill-rule="nonzero"/><defs><radialGradient id="p.4" gradientUnits="userSpaceOnUse" gradientTransform="matrix(7.0580367926316265 0.0 0.0 7.0580367926316265 0.0 0.0)" spreadMethod="pad" cx="12.636327446621408" cy="41.5756202240533" fx="12.636327446621408" fy="41.5756202240533" r="7.058036804199219"><stop offset="0.0" stop-color="#dfe9fb"/><stop offset="1.0" stop-color="#6e9be7"/></radialGradient></defs><path fill="url(#p.4)" d="m43.219162 274.2454l72.74016 0l19.196854 19.196869l-19.196854 19.196838l-72.74016 0z" fill-rule="evenodd"/><defs><radialGradient id="p.5" gradientUnits="userSpaceOnUse" gradientTransform="matrix(14.140247752811046 6.542429765408525 -6.542429765408525 14.140247752811046 0.0 0.0)" spreadMethod="pad" cx="23.176409637142424" cy="5.189670155865014" fx="23.176409637142424" fy="5.189670155865014" r="14.140247344970703"><stop offset="0.0" stop-color="#dfe9fb"/><stop offset="1.0" stop-color="#6e9be7"/></radialGradient></defs><path fill="url(#p.5)" d="m89.54023 307.6475l271.74805 -228.51968l1.7007751 355.03937z" fill-rule="evenodd"/><g filter="url(#shadowFilter-p.6)"><use xlink:href="#p.6" transform="matrix(1.0 0.0 0.0 1.0 0.0 2.0)"/></g><defs><filter id="shadowFilter-p.6" filterUnits="userSpaceOnUse"><feGaussianBlur in="SourceAlpha" stdDeviation="2.0" result="blur"/><feComponentTransfer in="blur" color-interpolation-filters="sRGB"><feFuncR type="linear" slope="0" intercept="0.0"/><feFuncG type="linear" slope="0" intercept="0.0"/><feFuncB type="linear" slope="0" intercept="0.0"/><feFuncA type="linear" slope="0.5" intercept="0"/></feComponentTransfer></filter></defs><g id="p.6"><defs><radialGradient id="p.7" gradientUnits="userSpaceOnUse" gradientTransform="matrix(11.806191378071212 0.0 0.0 11.806191378071212 0.0 0.0)" spreadMethod="pad" cx="12.241452789901603" cy="25.065699573859703" fx="12.241452789901603" fy="25.065699573859703" r="11.806191444396973"><stop offset="0.0" stop-color="#16d7fe"/><stop offset="1.0" stop-color="#06758b"/></radialGradient></defs><path fill="url(#p.7)" d="m42.902885 391.33203l101.62205 -190.80316l101.622055 190.80316z" fill-rule="evenodd"/><path fill="#ffffff" d="m133.79324 335.01373l0 17.9375l-5.609375 0l0 -8.9375l-2.75 8.9375l-4.8125 0l-2.765625 -8.9375l0 8.9375l-5.625 0l0 -17.9375l6.890625 0l3.953125 10.765625l3.84375 -10.765625l6.875 0zm5.368332 2.515625q-1.46875 0 -2.359375 -0.78125q-0.890625 -0.796875 -0.890625 -1.984375q0 -1.21875 0.890625 -2.015625q0.890625 -0.796875 2.359375 -0.796875q1.4375 0 2.3125 0.796875q0.890625 0.796875 0.890625 2.015625q0 1.1875 -0.890625 1.984375q-0.875 0.78125 -2.3125 0.78125zm2.78125 1.140625l0 14.28125l-5.625 0l0 -14.28125l5.625 0zm12.53067 -0.109375q2.46875 0 3.84375 1.65625q1.375 1.640625 1.375 4.453125l0 8.28125l-5.59375 0l0 -7.578125q0 -1.015625 -0.546875 -1.609375q-0.546875 -0.59375 -1.453125 -0.59375q-0.9375 0 -1.46875 0.59375q-0.53125 0.59375 -0.53125 1.609375l0 7.578125l-5.625 0l0 -14.28125l5.625 0l0 2.171875q0.65625 -1.015625 1.75 -1.640625q1.109375 -0.640625 2.625 -0.640625zm6.8881073 7.25q0 -2.25 0.765625 -3.90625q0.78125 -1.671875 2.125 -2.546875q1.34375 -0.875 3.015625 -0.875q1.390625 0 2.390625 0.578125q1.0 0.5625 1.53125 1.5625l0 -6.421875l5.625 0l0 18.75l-5.625 0l0 -1.953125q-0.53125 0.984375 -1.53125 1.5625q-1.0 0.5625 -2.390625 0.5625q-1.671875 0 -3.015625 -0.875q-1.34375 -0.875 -2.125 -2.53125q-0.765625 -1.65625 -0.765625 -3.90625zm9.859375 0q0 -1.140625 -0.59375 -1.765625q-0.578125 -0.640625 -1.484375 -0.640625q-0.90625 0 -1.5 0.640625q-0.578125 0.625 -0.578125 1.765625q0 1.140625 0.578125 1.78125q0.59375 0.625 1.5 0.625q0.90625 0 1.484375 -0.625q0.59375 -0.640625 0.59375 -1.78125z" fill-rule="nonzero"/></g><path fill="#ffff00" d="m65.75381 27.9987l12.271065 8.583069E-5l3.791893 -12.27109l3.7918854 12.27109l12.271072 -8.583069E-5l-9.927551 7.5838623l3.7920456 12.271038l-9.927452 -7.5840034l-9.92746 7.5840034l3.7920456 -12.271038z" fill-rule="evenodd"/><path fill="#ffff00" d="m125.62782 296.27966l14.436554 9.1552734E-5l4.4610443 -14.436584l4.4610443 14.436584l14.436554 -9.1552734E-5l-11.679474 8.92218l4.4612427 14.436523l-11.679367 -8.922363l-11.679352 8.922363l4.4612274 -14.436523z" fill-rule="evenodd"/><defs><radialGradient id="p.8" gradientUnits="userSpaceOnUse" gradientTransform="matrix(9.319721653364665 0.0 0.0 9.319721653364665 0.0 0.0)" spreadMethod="pad" cx="54.109424686608214" cy="7.66597334690593" fx="54.109424686608214" fy="7.66597334690593" r="9.319721221923828"><stop offset="0.0" stop-color="#3177ee"/><stop offset="1.0" stop-color="#113d8a"/></radialGradient></defs><path fill="url(#p.8)" d="m442.86746 71.44474l0 0c0 -33.919853 27.497467 -61.417324 61.417328 -61.417324l0 0c16.28888 0 31.910583 6.4707346 43.42859 17.988716c11.518005 11.5179825 17.988708 27.139717 17.988708 43.428608l0 0c0 33.919846 -27.497437 61.41732 -61.417297 61.41732l0 0c-33.91986 0 -61.417328 -27.497475 -61.417328 -61.41732z" fill-rule="evenodd"/><path fill="#ffffff" d="m474.5065 80.900986l0 3.34375l-1.953125 0l0 -9.46875l3.703125 0q1.0625 0 1.875 0.390625q0.8125 0.390625 1.25 1.109375q0.4375 0.71875 0.4375 1.625q0 1.390625 -0.953125 2.203125q-0.953125 0.796875 -2.640625 0.796875l-1.71875 0zm0 -1.578125l1.75 0q0.765625 0 1.171875 -0.359375q0.40625 -0.375 0.40625 -1.046875q0 -0.6875 -0.40625 -1.109375q-0.40625 -0.4375 -1.125 -0.453125l-1.796875 0l0 2.96875zm9.684143 5.046875q-1.546875 0 -2.53125 -0.9375q-0.96875 -0.953125 -0.96875 -2.53125l0 -0.1875q0 -1.0625 0.40625 -1.890625q0.40625 -0.84375 1.15625 -1.296875q0.765625 -0.453125 1.71875 -0.453125q1.453125 0 2.28125 0.921875q0.828125 0.90625 0.828125 2.578125l0 0.765625l-4.484375 0q0.09375 0.6875 0.546875 1.109375q0.46875 0.40625 1.171875 0.40625q1.078125 0 1.6875 -0.78125l0.921875 1.03125q-0.421875 0.59375 -1.140625 0.9375q-0.71875 0.328125 -1.59375 0.328125zm-0.21875 -5.78125q-0.5625 0 -0.90625 0.390625q-0.34375 0.375 -0.453125 1.078125l2.625 0l0 -0.15625q-0.015625 -0.625 -0.34375 -0.96875q-0.328125 -0.34375 -0.921875 -0.34375zm8.126099 0.375q-0.375 -0.046875 -0.671875 -0.046875q-1.0625 0 -1.390625 0.71875l0 4.609375l-1.890625 0l0 -7.046875l1.78125 0l0.046875 0.84375q0.578125 -0.96875 1.578125 -0.96875q0.3125 0 0.578125 0.078125l-0.03125 1.8125zm3.7220764 3.890625q0.515625 0 0.84375 -0.28125q0.328125 -0.28125 0.328125 -0.765625l1.765625 0q0 0.71875 -0.390625 1.3125q-0.375 0.59375 -1.046875 0.921875q-0.671875 0.328125 -1.46875 0.328125q-1.515625 0 -2.390625 -0.953125q-0.875 -0.96875 -0.875 -2.65625l0 -0.125q0 -1.625 0.859375 -2.59375q0.875 -0.96875 2.390625 -0.96875q1.3125 0 2.109375 0.75q0.8125 0.75 0.8125 2.0l-1.765625 0q0 -0.546875 -0.328125 -0.890625q-0.328125 -0.34375 -0.859375 -0.34375q-0.65625 0 -1.0 0.484375q-0.328125 0.484375 -0.328125 1.546875l0 0.203125q0 1.078125 0.328125 1.5625q0.328125 0.46875 1.015625 0.46875zm7.262909 1.515625q-1.546875 0 -2.53125 -0.9375q-0.96875 -0.953125 -0.96875 -2.53125l0 -0.1875q0 -1.0625 0.40625 -1.890625q0.40625 -0.84375 1.15625 -1.296875q0.765625 -0.453125 1.71875 -0.453125q1.453125 0 2.28125 0.921875q0.828125 0.90625 0.828125 2.578125l0 0.765625l-4.484375 0q0.09375 0.6875 0.546875 1.109375q0.46875 0.40625 1.171875 0.40625q1.078125 0 1.6875 -0.78125l0.921875 1.03125q-0.421875 0.59375 -1.140625 0.9375q-0.71875 0.328125 -1.59375 0.328125zm-0.21875 -5.78125q-0.5625 0 -0.90625 0.390625q-0.34375 0.375 -0.453125 1.078125l2.625 0l0 -0.15625q-0.015625 -0.625 -0.34375 -0.96875q-0.328125 -0.34375 -0.921875 -0.34375zm10.516693 2.203125q0 1.625 -0.75 2.609375q-0.7343445 0.96875 -1.9843445 0.96875q-1.0625 0 -1.71875 -0.734375l0 3.3125l-1.890625 0l0 -9.75l1.75 0l0.0625 0.6875q0.6875 -0.8125 1.78125 -0.8125q1.296875 0 2.0155945 0.96875q0.734375 0.953125 0.734375 2.65625l0 0.09375zm-1.8749695 -0.140625q0 -0.984375 -0.359375 -1.515625q-0.34375 -0.53125 -1.015625 -0.53125q-0.875 0 -1.203125 0.671875l0 2.890625q0.34375 0.6875 1.21875 0.6875q1.359375 0 1.359375 -2.203125zm5.2848206 -5.171875l0 1.71875l1.203125 0l0 1.390625l-1.203125 0l0 3.515625q0 0.390625 0.15625 0.5625q0.15625 0.15625 0.578125 0.15625q0.3125 0 0.546875 -0.046875l0 1.4375q-0.546875 0.15625 -1.140625 0.15625q-1.984375 0 -2.015625 -2.0l0 -3.78125l-1.03125 0l0 -1.390625l1.03125 0l0 -1.71875l1.875 0zm4.237854 8.765625l-1.890625 0l0 -7.046875l1.890625 0l0 7.046875zm-2.0 -8.859375q0 -0.421875 0.28125 -0.6875q0.296875 -0.28125 0.78125 -0.28125q0.484375 0 0.765625 0.28125q0.28125 0.265625 0.28125 0.6875q0 0.421875 -0.296875 0.703125q-0.28125 0.265625 -0.765625 0.265625q-0.46875 0 -0.765625 -0.265625q-0.28125 -0.28125 -0.28125 -0.703125zm3.2525024 5.28125q0 -1.0625 0.40625 -1.875q0.40625 -0.828125 1.15625 -1.265625q0.765625 -0.453125 1.765625 -0.453125q1.4375 0 2.328125 0.875q0.90625 0.875 1.015625 2.359375l0 0.484375q0 1.625 -0.90625 2.609375q-0.890625 0.96875 -2.421875 0.96875q-1.515625 0 -2.4375 -0.96875q-0.90625 -0.984375 -0.90625 -2.65625l0 -0.078125zm1.890625 0.125q0 1.0 0.375 1.53125q0.375 0.53125 1.078125 0.53125q0.6875 0 1.0625 -0.515625q0.390625 -0.53125 0.390625 -1.671875q0 -0.984375 -0.390625 -1.53125q-0.375 -0.546875 -1.078125 -0.546875q-0.6875 0 -1.0625 0.546875q-0.375 0.53125 -0.375 1.65625zm7.676758 -3.59375l0.0625 0.8125q0.75 -0.9375 2.015625 -0.9375q1.125 0 1.671875 0.65625q0.546875 0.65625 0.5625 1.96875l0 4.546875l-1.890625 0l0 -4.5q0 -0.609375 -0.265625 -0.875q-0.25 -0.265625 -0.859375 -0.265625q-0.78125 0 -1.1875 0.671875l0 4.96875l-1.875 0l0 -7.046875l1.765625 0z" fill-rule="nonzero"/><path fill="#ffffff" d="m487.30786 96.66661q0 -1.0625 0.40625 -1.875q0.40625 -0.828125 1.15625 -1.265625q0.765625 -0.453125 1.765625 -0.453125q1.4375 0 2.328125 0.875q0.90625 0.875 1.015625 2.359375l0 0.484375q0 1.625 -0.90625 2.609375q-0.890625 0.96875 -2.421875 0.96875q-1.515625 0 -2.4375 -0.96875q-0.90625 -0.984375 -0.90625 -2.65625l0 -0.078125zm1.890625 0.125q0 1.0 0.375 1.53125q0.375 0.53125 1.078125 0.53125q0.6875 0 1.0625 -0.515625q0.390625 -0.53125 0.390625 -1.671875q0 -0.984375 -0.390625 -1.53125q-0.375 -0.546875 -1.078125 -0.546875q-0.6875 0 -1.0625 0.546875q-0.375 0.53125 -0.375 1.65625zm6.4579773 3.453125l0 -5.65625l-1.046875 0l0 -1.390625l1.046875 0l0 -0.59375q0 -1.1875 0.671875 -1.828125q0.6875 -0.65625 1.90625 -0.65625q0.390625 0 0.96875 0.125l-0.03125 1.453125q-0.234375 -0.0625 -0.5625 -0.0625q-1.0625 0 -1.0625 1.0l0 0.5625l1.390625 0l0 1.390625l-1.390625 0l0 5.65625l-1.890625 0zm9.83017 -8.765625l0 1.71875l1.203125 0l0 1.390625l-1.203125 0l0 3.515625q0 0.390625 0.15625 0.5625q0.15625 0.15625 0.578125 0.15625q0.3125 0 0.546875 -0.046875l0 1.4375q-0.546875 0.15625 -1.140625 0.15625q-1.984375 0 -2.015625 -2.0l0 -3.78125l-1.03125 0l0 -1.390625l1.03125 0l0 -1.71875l1.875 0zm4.0971985 2.484375q0.75 -0.890625 1.875 -0.890625q2.2969055 0 2.3281555 2.65625l0 4.515625l-1.8906555 0l0 -4.453125q0 -0.609375 -0.265625 -0.890625q-0.25 -0.296875 -0.859375 -0.296875q-0.828125 0 -1.1875 0.640625l0 5.0l-1.890625 0l0 -10.0l1.890625 0l0 3.71875zm8.864288 6.40625q-1.546875 0 -2.53125 -0.9375q-0.96875 -0.953125 -0.96875 -2.53125l0 -0.1875q0 -1.0625 0.40625 -1.890625q0.40625 -0.84375 1.15625 -1.296875q0.765625 -0.453125 1.71875 -0.453125q1.453125 0 2.28125 0.921875q0.828125 0.90625 0.828125 2.578125l0 0.765625l-4.484375 0q0.09375 0.6875 0.546875 1.109375q0.46875 0.40625 1.171875 0.40625q1.078125 0 1.6875 -0.78125l0.921875 1.03125q-0.421875 0.59375 -1.140625 0.9375q-0.71875 0.328125 -1.59375 0.328125zm-0.21875 -5.78125q-0.5625 0 -0.90625 0.390625q-0.34375 0.375 -0.453125 1.078125l2.625 0l0 -0.15625q-0.015625 -0.625 -0.34375 -0.96875q-0.328125 -0.34375 -0.921875 -0.34375z" fill-rule="nonzero"/><path fill="#ffffff" d="m492.58365 106.775986l2.4375 6.859375l2.421875 -6.859375l2.5625 0l0 9.46875l-1.953125 0l0 -2.59375l0.1875 -4.46875l-2.546875 7.0625l-1.34375 0l-2.546875 -7.046875l0.1875 4.453125l0 2.59375l-1.953125 0l0 -9.46875l2.546875 0zm10.98761 9.46875l-1.890625 0l0 -7.046875l1.890625 0l0 7.046875zm-2.0 -8.859375q0 -0.421875 0.28125 -0.6875q0.296875 -0.28125 0.78125 -0.28125q0.484375 0 0.765625 0.28125q0.28125 0.265625 0.28125 0.6875q0 0.421875 -0.296875 0.703125q-0.28125 0.265625 -0.765625 0.265625q-0.46875 0 -0.765625 -0.265625q-0.28125 -0.28125 -0.28125 -0.703125zm5.283783 1.8125l0.0625 0.8125q0.75 -0.9375 2.015625 -0.9375q1.125 0 1.671875 0.65625q0.546875 0.65625 0.5625 1.96875l0 4.546875l-1.890625 0l0 -4.5q0 -0.609375 -0.265625 -0.875q-0.25 -0.265625 -0.859375 -0.265625q-0.78125 0 -1.1875 0.671875l0 4.96875l-1.875 0l0 -7.046875l1.765625 0zm5.4332886 3.46875q0 -1.640625 0.734375 -2.609375q0.75 -0.984375 2.03125 -0.984375q1.03125 0 1.703125 0.765625l0 -3.59375l1.890625 0l0 10.0l-1.703125 0l-0.09375 -0.75q-0.703125 0.875 -1.8125 0.875q-1.234375 0 -2.0 -0.96875q-0.75 -0.984375 -0.75 -2.734375zm1.890625 0.140625q0 0.984375 0.34375 1.515625q0.34375 0.53125 1.0 0.53125q0.875 0 1.234375 -0.734375l0 -2.78125q-0.359375 -0.734375 -1.21875 -0.734375q-1.359375 0 -1.359375 2.203125z" fill-rule="nonzero"/><path fill="#ffff00" d="m493.8903 393.78323l7.940094 6.1035156E-5l2.4535828 -7.9401245l2.4535522 7.9401245l7.940094 -6.1035156E-5l-6.4236755 4.9072266l2.4536743 7.9400635l-6.423645 -4.9072876l-6.423645 4.9072876l2.4536743 -7.9400635z" fill-rule="evenodd"/><path fill="#ffff00" d="m485.38635 40.185165l14.436554 1.02996826E-4l4.4610596 -14.436575l4.461029 14.436575l14.436584 -1.02996826E-4l-11.679504 8.922195l4.4612427 14.436512l-11.679352 -8.922356l-11.679382 8.922356l4.4612427 -14.436512z" fill-rule="evenodd"/><defs><linearGradient id="p.9" gradientUnits="userSpaceOnUse" gradientTransform="matrix(0.0 11.117158240751305 11.117158240751305 0.0 0.0 0.0)" spreadMethod="pad" x1="16.15305922581061" y1="20.348944941310258" x2="16.153018647501316" y2="31.466103181987506"><stop offset="0.0" stop-color="#dfe9fb"/><stop offset="1.0" stop-color="#6e9be7"/></linearGradient></defs><path fill="url(#p.9)" d="m349.81366 179.57611l-123.59056 30.897644l0 123.968506l123.59056 30.897644z" fill-rule="evenodd"/><path fill="#000000" fill-opacity="0.0" d="m236.15355 214.28477l138.01573 0l0 116.34645l-138.01573 0z" fill-rule="evenodd"/><path fill="#9400d3" d="m262.27853 227.31665l-2.59375 11.328125l-4.4218597 0l-1.3125 -6.4375l-1.3125 6.4375l-4.40625 0l-2.59375 -11.328125l3.8125 0l1.03125 7.140625l1.53125 -7.140625l3.875 0l1.5312347 7.140625l1.03125 -7.140625l3.828125 0zm0.7875366 6.8125q0 -1.421875 0.484375 -2.46875q0.5 -1.046875 1.34375 -1.59375q0.84375 -0.5625 1.90625 -0.5625q0.875 0 1.515625 0.359375q0.640625 0.359375 0.984375 0.984375l0 -1.234375l3.53125 0l0 9.03125l-3.53125 0l0 -1.234375q-0.34375 0.625 -0.984375 0.984375q-0.640625 0.359375 -1.515625 0.359375q-1.0625 0 -1.90625 -0.546875q-0.84375 -0.546875 -1.34375 -1.59375q-0.484375 -1.0625 -0.484375 -2.484375zm6.234375 0q0 -0.71875 -0.375 -1.109375q-0.359375 -0.40625 -0.9375 -0.40625q-0.578125 0 -0.953125 0.40625q-0.359375 0.390625 -0.359375 1.109375q0 0.71875 0.359375 1.125q0.375 0.40625 0.953125 0.40625q0.578125 0 0.9375 -0.40625q0.375 -0.40625 0.375 -1.125zm10.911285 4.515625l-2.21875 -3.59375l0 3.59375l-3.5625 0l0 -11.84375l3.5625 0l0 6.203125l2.25 -3.390625l4.125 0l-3.375 4.546875l3.453125 4.484375l-4.234375 0zm6.8316345 -9.75q-0.9375 0 -1.5 -0.484375q-0.546875 -0.5 -0.546875 -1.25q0 -0.765625 0.546875 -1.265625q0.5625 -0.515625 1.5 -0.515625q0.90625 0 1.46875 0.515625q0.5625 0.5 0.5625 1.265625q0 0.75 -0.5625 1.25q-0.5625 0.484375 -1.46875 0.484375zm1.765625 0.71875l0 9.03125l-3.5625 0l0 -9.03125l3.5625 0zm7.917633 -0.0625q1.546875 0 2.421875 1.046875q0.875 1.03125 0.875 2.8125l0 5.234375l-3.546875 0l0 -4.78125q0 -0.640625 -0.34375 -1.015625q-0.34375 -0.375 -0.921875 -0.375q-0.578125 0 -0.921875 0.375q-0.328125 0.375 -0.328125 1.015625l0 4.78125l-3.5625 0l0 -9.03125l3.5625 0l0 1.390625q0.40625 -0.640625 1.09375 -1.046875q0.703125 -0.40625 1.671875 -0.40625zm8.073914 -0.046875q0.875 0 1.515625 0.359375q0.640625 0.359375 0.984375 0.984375l0 -1.234375l3.53125 0l0 8.875q0 1.265625 -0.46875 2.296875q-0.453125 1.046875 -1.484375 1.671875q-1.03125 0.625 -2.65625 0.625q-2.171875 0 -3.453125 -1.015625q-1.265625 -1.015625 -1.4375 -2.765625l3.484375 0q0.140625 0.703125 1.15625 0.703125q0.625 0 0.96875 -0.328125q0.359375 -0.3125 0.359375 -1.1875l0 -1.078125q-0.34375 0.625 -0.984375 0.984375q-0.640625 0.359375 -1.515625 0.359375q-1.0625 0 -1.90625 -0.546875q-0.84375 -0.546875 -1.34375 -1.59375q-0.484375 -1.0625 -0.484375 -2.484375q0 -1.421875 0.484375 -2.46875q0.5 -1.046875 1.34375 -1.59375q0.84375 -0.5625 1.90625 -0.5625zm2.5 4.625q0 -0.71875 -0.375 -1.109375q-0.359375 -0.40625 -0.9375 -0.40625q-0.578125 0 -0.953125 0.40625q-0.359375 0.390625 -0.359375 1.109375q0 0.71875 0.359375 1.125q0.375 0.40625 0.953125 0.40625q0.578125 0 0.9375 -0.40625q0.375 -0.40625 0.375 -1.125z" fill-rule="nonzero"/><path fill="#ff00ff" d="m250.66917 246.51665q1.78125 0 3.109375 0.71875q1.34375 0.71875 2.0625 2.0q0.71873474 1.28125 0.71873474 2.90625q0 1.625 -0.71873474 2.921875q-0.71875 1.2968903 -2.0625 2.0468903q-1.328125 0.734375 -3.109375 0.734375l-4.71875 0l0 -11.32814l4.71875 0zm-0.3125 8.15625q1.203125 0 1.90625 -0.65625q0.703125 -0.65625 0.703125 -1.875q0 -1.203125 -0.703125 -1.859375q-0.703125 -0.65625 -1.90625 -0.65625l-0.84375 0l0 5.046875l0.84375 0zm11.044266 -4.1875q0.53125 -0.78125 1.3125 -1.25q0.796875 -0.484375 1.640625 -0.484375l0 3.796875l-1.015625 0q-1.0 0 -1.46875 0.359375q-0.46875 0.34375 -0.46875 1.234375l0 3.7031403l-3.5625 0l0 -9.031265l3.5625 0l0 1.671875zm12.64389 2.765625q0 0.375 -0.046875 0.703125l-5.703125 0q0.078125 1.171875 0.96875 1.171875q0.578125 0 0.828125 -0.53125l3.765625 0q-0.1875 0.96875 -0.8125 1.7343903q-0.609375 0.75 -1.546875 1.1875q-0.9375 0.4375 -2.0625 0.4375q-1.34375 0 -2.390625 -0.5625q-1.046875 -0.5625 -1.640625 -1.6093903q-0.578125 -1.046875 -0.578125 -2.453125q0 -1.40625 0.578125 -2.453125q0.59375 -1.046875 1.640625 -1.609375q1.046875 -0.5625 2.390625 -0.5625q1.34375 0 2.390625 0.5625q1.0625 0.546875 1.640625 1.578125q0.578125 1.015625 0.578125 2.40625zm-3.59375 -0.84375q0 -0.453125 -0.296875 -0.6875q-0.28125 -0.234375 -0.71875 -0.234375q-0.9375 0 -1.09375 0.921875l2.109375 0zm4.231018 0.921875q0 -1.421875 0.484375 -2.46875q0.5 -1.046875 1.34375 -1.59375q0.84375 -0.5625 1.90625 -0.5625q0.875 0 1.515625 0.359375q0.640625 0.359375 0.984375 0.984375l0 -1.234375l3.53125 0l0 9.031265l-3.53125 0l0 -1.234375q-0.34375 0.625 -0.984375 0.984375q-0.640625 0.359375 -1.515625 0.359375q-1.0625 0 -1.90625 -0.546875q-0.84375 -0.546875 -1.34375 -1.5937653q-0.484375 -1.0625 -0.484375 -2.484375zm6.234375 0q0 -0.71875 -0.375 -1.109375q-0.359375 -0.40625 -0.9375 -0.40625q-0.578125 0 -0.953125 0.40625q-0.359375 0.390625 -0.359375 1.109375q0 0.71875 0.359375 1.125q0.375 0.40625 0.953125 0.40625q0.578125 0 0.9375 -0.40625q0.375 -0.40625 0.375 -1.125zm17.17691 -4.578125q1.734375 0 2.6875 1.046875q0.953125 1.03125 0.953125 2.8125l0 5.2343903l-3.546875 0l0 -4.7812653q0 -0.578125 -0.34375 -0.90625q-0.34375 -0.328125 -0.90625 -0.328125q-0.59375 0 -0.9375 0.328125q-0.328125 0.328125 -0.328125 0.90625l0 4.7812653l-3.546875 0l0 -4.7812653q0 -0.578125 -0.34375 -0.90625q-0.34375 -0.328125 -0.921875 -0.328125q-0.578125 0 -0.921875 0.328125q-0.328125 0.328125 -0.328125 0.90625l0 4.7812653l-3.5625 0l0 -9.031265l3.5625 0l0 1.21875q0.375 -0.578125 1.03125 -0.921875q0.671875 -0.359375 1.5625 -0.359375q0.984375 0 1.734375 0.4375q0.75 0.421875 1.203125 1.1875q0.5 -0.703125 1.265625 -1.15625q0.765625 -0.46875 1.6875 -0.46875zm6.966034 -0.65625q-0.9375 0 -1.5 -0.484375q-0.546875 -0.5 -0.546875 -1.25q0 -0.765625 0.546875 -1.265625q0.5625 -0.515625 1.5 -0.515625q0.90625 0 1.46875 0.515625q0.5625 0.5 0.5625 1.265625q0 0.75 -0.5625 1.25q-0.5625 0.484375 -1.46875 0.484375zm1.765625 0.71875l0 9.031265l-3.5625 0l0 -9.031265l3.5625 0zm7.917633 -0.0625q1.546875 0 2.421875 1.046875q0.875 1.03125 0.875 2.8125l0 5.2343903l-3.546875 0l0 -4.7812653q0 -0.640625 -0.34375 -1.015625q-0.34375 -0.375 -0.921875 -0.375q-0.578125 0 -0.921875 0.375q-0.328125 0.375 -0.328125 1.015625l0 4.7812653l-3.5625 0l0 -9.031265l3.5625 0l0 1.390625q0.40625 -0.640625 1.09375 -1.046875q0.703125 -0.40625 1.671875 -0.40625zm8.073883 -0.046875q0.875 0 1.515625 0.359375q0.640625 0.359375 0.984375 0.984375l0 -1.234375l3.53125 0l0 8.875015q0 1.265625 -0.46875 2.296875q-0.453125 1.046875 -1.484375 1.671875q-1.03125 0.625 -2.65625 0.625q-2.171875 0 -3.453125 -1.015625q-1.265625 -1.015625 -1.4375 -2.765625l3.484375 0q0.140625 0.703125 1.15625 0.703125q0.625 0 0.96875 -0.328125q0.359375 -0.3125 0.359375 -1.1875l0 -1.078125q-0.34375 0.625 -0.984375 0.984375q-0.640625 0.359375 -1.515625 0.359375q-1.0625 0 -1.90625 -0.546875q-0.84375 -0.546875 -1.34375 -1.5937653q-0.484375 -1.0625 -0.484375 -2.484375q0 -1.421875 0.484375 -2.46875q0.5 -1.046875 1.34375 -1.59375q0.84375 -0.5625 1.90625 -0.5625zm2.5 4.625q0 -0.71875 -0.375 -1.109375q-0.359375 -0.40625 -0.9375 -0.40625q-0.578125 0 -0.953125 0.40625q-0.359375 0.390625 -0.359375 1.109375q0 0.71875 0.359375 1.125q0.375 0.40625 0.953125 0.40625q0.578125 0 0.9375 -0.40625q0.375 -0.40625 0.375 -1.125z" fill-rule="nonzero"/><path fill="#ff9900" d="m250.66917 265.71664q1.78125 0 3.109375 0.71875q1.34375 0.71875 2.0625 2.0q0.71873474 1.28125 0.71873474 2.90625q0 1.625 -0.71873474 2.921875q-0.71875 1.296875 -2.0625 2.046875q-1.328125 0.734375 -3.109375 0.734375l-4.71875 0l0 -11.328125l4.71875 0zm-0.3125 8.15625q1.203125 0 1.90625 -0.65625q0.703125 -0.65625 0.703125 -1.875q0 -1.203125 -0.703125 -1.859375q-0.703125 -0.65625 -1.90625 -0.65625l-0.84375 0l0 5.046875l0.84375 0zm11.044266 -4.1875q0.53125 -0.78125 1.3125 -1.25q0.796875 -0.484375 1.640625 -0.484375l0 3.796875l-1.015625 0q-1.0 0 -1.46875 0.359375q-0.46875 0.34375 -0.46875 1.234375l0 3.703125l-3.5625 0l0 -9.03125l3.5625 0l0 1.671875zm13.472015 -1.671875l0 9.03125l-3.5625 0l0 -1.375q-0.40625 0.640625 -1.109375 1.046875q-0.703125 0.390625 -1.65625 0.390625q-1.546875 0 -2.421875 -1.03125q-0.875 -1.046875 -0.875 -2.828125l0 -5.234375l3.53125 0l0 4.796875q0 0.640625 0.34375 1.015625q0.34375 0.375 0.921875 0.375q0.59375 0 0.921875 -0.375q0.34375 -0.375 0.34375 -1.015625l0 -4.796875l3.5625 0zm4.8395386 -0.109375q0.875 0 1.515625 0.359375q0.640625 0.359375 0.984375 0.984375l0 -1.234375l3.53125 0l0 8.875q0 1.265625 -0.46875 2.296875q-0.453125 1.046875 -1.484375 1.671875q-1.03125 0.625 -2.65625 0.625q-2.171875 0 -3.453125 -1.015625q-1.265625 -1.015625 -1.4375 -2.765625l3.484375 0q0.140625 0.703125 1.15625 0.703125q0.625 0 0.96875 -0.328125q0.359375 -0.3125 0.359375 -1.1875l0 -1.078125q-0.34375 0.625 -0.984375 0.984375q-0.640625 0.359375 -1.515625 0.359375q-1.0625 0 -1.90625 -0.546875q-0.84375 -0.546875 -1.34375 -1.59375q-0.484375 -1.0625 -0.484375 -2.484375q0 -1.421875 0.484375 -2.46875q0.5 -1.046875 1.34375 -1.59375q0.84375 -0.5625 1.90625 -0.5625zm2.5 4.625q0 -0.71875 -0.375 -1.109375q-0.359375 -0.40625 -0.9375 -0.40625q-0.578125 0 -0.953125 0.40625q-0.359375 0.390625 -0.359375 1.109375q0 0.71875 0.359375 1.125q0.375 0.40625 0.953125 0.40625q0.578125 0 0.9375 -0.40625q0.375 -0.40625 0.375 -1.125zm8.380005 -4.625q0.875 0 1.515625 0.359375q0.640625 0.359375 0.984375 0.984375l0 -1.234375l3.53125 0l0 8.875q0 1.265625 -0.46875 2.296875q-0.453125 1.046875 -1.484375 1.671875q-1.03125 0.625 -2.65625 0.625q-2.171875 0 -3.453125 -1.015625q-1.265625 -1.015625 -1.4375 -2.765625l3.484375 0q0.140625 0.703125 1.15625 0.703125q0.625 0 0.96875 -0.328125q0.359375 -0.3125 0.359375 -1.1875l0 -1.078125q-0.34375 0.625 -0.984375 0.984375q-0.640625 0.359375 -1.515625 0.359375q-1.0625 0 -1.90625 -0.546875q-0.84375 -0.546875 -1.34375 -1.59375q-0.484375 -1.0625 -0.484375 -2.484375q0 -1.421875 0.484375 -2.46875q0.5 -1.046875 1.34375 -1.59375q0.84375 -0.5625 1.90625 -0.5625zm2.5 4.625q0 -0.71875 -0.375 -1.109375q-0.359375 -0.40625 -0.9375 -0.40625q-0.578125 0 -0.953125 0.40625q-0.359375 0.390625 -0.359375 1.109375q0 0.71875 0.359375 1.125q0.375 0.40625 0.953125 0.40625q0.578125 0 0.9375 -0.40625q0.375 -0.40625 0.375 -1.125zm13.86441 -0.078125q0 0.375 -0.046875 0.703125l-5.703125 0q0.078125 1.171875 0.96875 1.171875q0.578125 0 0.828125 -0.53125l3.765625 0q-0.1875 0.96875 -0.8125 1.734375q-0.609375 0.75 -1.546875 1.1875q-0.9375 0.4375 -2.0625 0.4375q-1.34375 0 -2.390625 -0.5625q-1.046875 -0.5625 -1.640625 -1.609375q-0.578125 -1.046875 -0.578125 -2.453125q0 -1.40625 0.578125 -2.453125q0.59375 -1.046875 1.640625 -1.609375q1.046875 -0.5625 2.390625 -0.5625q1.34375 0 2.390625 0.5625q1.0625 0.546875 1.640625 1.578125q0.578125 1.015625 0.578125 2.40625zm-3.59375 -0.84375q0 -0.453125 -0.296875 -0.6875q-0.28125 -0.234375 -0.71875 -0.234375q-0.9375 0 -1.09375 0.921875l2.109375 0zm4.231018 0.921875q0 -1.421875 0.484375 -2.46875q0.5 -1.046875 1.34375 -1.59375q0.84375 -0.5625 1.90625 -0.5625q0.875 0 1.5 0.359375q0.640625 0.359375 0.984375 0.984375l0 -4.046875l3.546875 0l0 11.84375l-3.546875 0l0 -1.234375q-0.34375 0.625 -0.984375 0.984375q-0.625 0.359375 -1.5 0.359375q-1.0625 0 -1.90625 -0.546875q-0.84375 -0.546875 -1.34375 -1.59375q-0.484375 -1.0625 -0.484375 -2.484375zm6.234375 0q0 -0.71875 -0.375 -1.109375q-0.359375 -0.40625 -0.9375 -0.40625q-0.578125 0 -0.953125 0.40625q-0.359375 0.390625 -0.359375 1.109375q0 0.71875 0.359375 1.125q0.375 0.40625 0.953125 0.40625q0.578125 0 0.9375 -0.40625q0.375 -0.40625 0.375 -1.125z" fill-rule="nonzero"/><path fill="#ff0000" d="m250.66917 284.91666q1.78125 0 3.109375 0.71875q1.34375 0.71875 2.0625 2.0q0.71873474 1.28125 0.71873474 2.90625q0 1.625 -0.71873474 2.921875q-0.71875 1.296875 -2.0625 2.046875q-1.328125 0.734375 -3.109375 0.734375l-4.71875 0l0 -11.328125l4.71875 0zm-0.3125 8.15625q1.203125 0 1.90625 -0.65625q0.703125 -0.65625 0.703125 -1.875q0 -1.203125 -0.703125 -1.859375q-0.703125 -0.65625 -1.90625 -0.65625l-0.84375 0l0 5.046875l0.84375 0zm11.044266 -4.1875q0.53125 -0.78125 1.3125 -1.25q0.796875 -0.484375 1.640625 -0.484375l0 3.796875l-1.015625 0q-1.0 0 -1.46875 0.359375q-0.46875 0.34375 -0.46875 1.234375l0 3.703125l-3.5625 0l0 -9.03125l3.5625 0l0 1.671875zm12.64389 2.765625q0 0.375 -0.046875 0.703125l-5.703125 0q0.078125 1.171875 0.96875 1.171875q0.578125 0 0.828125 -0.53125l3.765625 0q-0.1875 0.96875 -0.8125 1.734375q-0.609375 0.75 -1.546875 1.1875q-0.9375 0.4375 -2.0625 0.4375q-1.34375 0 -2.390625 -0.5625q-1.046875 -0.5625 -1.640625 -1.609375q-0.578125 -1.046875 -0.578125 -2.453125q0 -1.40625 0.578125 -2.453125q0.59375 -1.046875 1.640625 -1.609375q1.046875 -0.5625 2.390625 -0.5625q1.34375 0 2.390625 0.5625q1.0625 0.546875 1.640625 1.578125q0.578125 1.015625 0.578125 2.40625zm-3.59375 -0.84375q0 -0.453125 -0.296875 -0.6875q-0.28125 -0.234375 -0.71875 -0.234375q-0.9375 0 -1.09375 0.921875l2.109375 0zm4.231018 0.921875q0 -1.421875 0.484375 -2.46875q0.5 -1.046875 1.34375 -1.59375q0.84375 -0.5625 1.90625 -0.5625q0.875 0 1.515625 0.359375q0.640625 0.359375 0.984375 0.984375l0 -1.234375l3.53125 0l0 9.03125l-3.53125 0l0 -1.234375q-0.34375 0.625 -0.984375 0.984375q-0.640625 0.359375 -1.515625 0.359375q-1.0625 0 -1.90625 -0.546875q-0.84375 -0.546875 -1.34375 -1.59375q-0.484375 -1.0625 -0.484375 -2.484375zm6.234375 0q0 -0.71875 -0.375 -1.109375q-0.359375 -0.40625 -0.9375 -0.40625q-0.578125 0 -0.953125 0.40625q-0.359375 0.390625 -0.359375 1.109375q0 0.71875 0.359375 1.125q0.375 0.40625 0.953125 0.40625q0.578125 0 0.9375 -0.40625q0.375 -0.40625 0.375 -1.125zm17.17691 -4.578125q1.734375 0 2.6875 1.046875q0.953125 1.03125 0.953125 2.8125l0 5.234375l-3.546875 0l0 -4.78125q0 -0.578125 -0.34375 -0.90625q-0.34375 -0.328125 -0.90625 -0.328125q-0.59375 0 -0.9375 0.328125q-0.328125 0.328125 -0.328125 0.90625l0 4.78125l-3.546875 0l0 -4.78125q0 -0.578125 -0.34375 -0.90625q-0.34375 -0.328125 -0.921875 -0.328125q-0.578125 0 -0.921875 0.328125q-0.328125 0.328125 -0.328125 0.90625l0 4.78125l-3.5625 0l0 -9.03125l3.5625 0l0 1.21875q0.375 -0.578125 1.03125 -0.921875q0.671875 -0.359375 1.5625 -0.359375q0.984375 0 1.734375 0.4375q0.75 0.421875 1.203125 1.1875q0.5 -0.703125 1.265625 -1.15625q0.765625 -0.46875 1.6875 -0.46875zm8.731659 -2.75l0 11.84375l-3.5625 0l0 -11.84375l3.5625 0zm10.323883 7.25q0 0.375 -0.046875 0.703125l-5.703125 0q0.078125 1.171875 0.96875 1.171875q0.578125 0 0.828125 -0.53125l3.765625 0q-0.1875 0.96875 -0.8125 1.734375q-0.609375 0.75 -1.546875 1.1875q-0.9375 0.4375 -2.0625 0.4375q-1.34375 0 -2.390625 -0.5625q-1.046875 -0.5625 -1.640625 -1.609375q-0.578125 -1.046875 -0.578125 -2.453125q0 -1.40625 0.578125 -2.453125q0.59375 -1.046875 1.640625 -1.609375q1.046875 -0.5625 2.390625 -0.5625q1.34375 0 2.390625 0.5625q1.0625 0.546875 1.640625 1.578125q0.578125 1.015625 0.578125 2.40625zm-3.59375 -0.84375q0 -0.453125 -0.296875 -0.6875q-0.28125 -0.234375 -0.71875 -0.234375q-0.9375 0 -1.09375 0.921875l2.109375 0zm8.731018 5.546875q-1.28125 0 -2.265625 -0.40625q-0.984375 -0.421875 -1.5625 -1.15625q-0.5625 -0.734375 -0.640625 -1.671875l3.40625 0q0.0625 0.40625 0.34375 0.59375q0.28125 0.1875 0.703125 0.1875q0.28125 0 0.4375 -0.109375q0.15625 -0.125 0.15625 -0.296875q0 -0.3125 -0.34375 -0.4375q-0.328125 -0.125 -1.125 -0.28125q-0.984375 -0.1875 -1.609375 -0.40625q-0.625 -0.234375 -1.109375 -0.78125q-0.46875 -0.546875 -0.46875 -1.5q0 -0.828125 0.4375 -1.515625q0.4375 -0.6875 1.296875 -1.078125q0.875 -0.390625 2.109375 -0.390625q1.828125 0 2.859375 0.90625q1.03125 0.890625 1.234375 2.328125l-3.15625 0q-0.078125 -0.359375 -0.34375 -0.5625q-0.25 -0.203125 -0.671875 -0.203125q-0.28125 0 -0.421875 0.109375q-0.140625 0.09375 -0.140625 0.3125q0 0.265625 0.328125 0.40625q0.34375 0.125 1.078125 0.28125q0.96875 0.1875 1.640625 0.4375q0.671875 0.234375 1.171875 0.8125q0.5 0.578125 0.5 1.609375q0 0.796875 -0.46875 1.4375q-0.453125 0.640625 -1.328125 1.015625q-0.875 0.359375 -2.046875 0.359375zm9.264008 0q-1.28125 0 -2.265625 -0.40625q-0.984375 -0.421875 -1.5625 -1.15625q-0.5625 -0.734375 -0.640625 -1.671875l3.40625 0q0.0625 0.40625 0.34375 0.59375q0.28125 0.1875 0.703125 0.1875q0.28125 0 0.4375 -0.109375q0.15625 -0.125 0.15625 -0.296875q0 -0.3125 -0.34375 -0.4375q-0.328125 -0.125 -1.125 -0.28125q-0.984375 -0.1875 -1.609375 -0.40625q-0.625 -0.234375 -1.109375 -0.78125q-0.46875 -0.546875 -0.46875 -1.5q0 -0.828125 0.4375 -1.515625q0.4375 -0.6875 1.296875 -1.078125q0.875 -0.390625 2.109375 -0.390625q1.828125 0 2.859375 0.90625q1.03125 0.890625 1.234375 2.328125l-3.15625 0q-0.078125 -0.359375 -0.34375 -0.5625q-0.25 -0.203125 -0.671875 -0.203125q-0.28125 0 -0.421875 0.109375q-0.140625 0.09375 -0.140625 0.3125q0 0.265625 0.328125 0.40625q0.34375 0.125 1.078125 0.28125q0.96875 0.1875 1.640625 0.4375q0.671875 0.234375 1.171875 0.8125q0.5 0.578125 0.5 1.609375q0 0.796875 -0.46875 1.4375q-0.453125 0.640625 -1.328125 1.015625q-0.875 0.359375 -2.046875 0.359375z" fill-rule="nonzero"/><path fill="#38761d" d="m253.21605 313.726l-3.78125 0l-0.546875 1.71875l-3.734375 0l4.140625 -11.328125l4.09375 0l4.1406097 11.328125l-3.7499847 0l-0.5625 -1.71875zm-0.859375 -2.671875l-1.03125 -3.140625l-1.015625 3.140625l2.046875 0zm19.664902 -4.640625l-2.140625 9.03125l-4.0 0l-1.09375 -5.09375l-1.15625 5.09375l-4.0 0l-2.125 -9.03125l3.515625 0l0.75 5.5l1.171875 -5.5l3.796875 0l1.234375 5.5625l0.765625 -5.5625l3.28125 0zm0.26052856 4.515625q0 -1.421875 0.484375 -2.46875q0.5 -1.046875 1.34375 -1.59375q0.84375 -0.5625 1.90625 -0.5625q0.875 0 1.515625 0.359375q0.640625 0.359375 0.984375 0.984375l0 -1.234375l3.53125 0l0 9.03125l-3.53125 0l0 -1.234375q-0.34375 0.625 -0.984375 0.984375q-0.640625 0.359375 -1.515625 0.359375q-1.0625 0 -1.90625 -0.546875q-0.84375 -0.546875 -1.34375 -1.59375q-0.484375 -1.0625 -0.484375 -2.484375zm6.234375 0q0 -0.71875 -0.375 -1.109375q-0.359375 -0.40625 -0.9375 -0.40625q-0.578125 0 -0.953125 0.40625q-0.359375 0.390625 -0.359375 1.109375q0 0.71875 0.359375 1.125q0.375 0.40625 0.953125 0.40625q0.578125 0 0.9375 -0.40625q0.375 -0.40625 0.375 -1.125zm10.911255 4.515625l-2.21875 -3.59375l0 3.59375l-3.5625 0l0 -11.84375l3.5625 0l0 6.203125l2.25 -3.390625l4.125 0l-3.375 4.546875l3.453125 4.484375l-4.234375 0zm13.769165 -4.59375q0 0.375 -0.046875 0.703125l-5.703125 0q0.078125 1.171875 0.96875 1.171875q0.578125 0 0.828125 -0.53125l3.765625 0q-0.1875 0.96875 -0.8125 1.734375q-0.609375 0.75 -1.546875 1.1875q-0.9375 0.4375 -2.0625 0.4375q-1.34375 0 -2.390625 -0.5625q-1.046875 -0.5625 -1.640625 -1.609375q-0.578125 -1.046875 -0.578125 -2.453125q0 -1.40625 0.578125 -2.453125q0.59375 -1.046875 1.640625 -1.609375q1.046875 -0.5625 2.390625 -0.5625q1.34375 0 2.390625 0.5625q1.0625 0.546875 1.640625 1.578125q0.578125 1.015625 0.578125 2.40625zm-3.59375 -0.84375q0 -0.453125 -0.296875 -0.6875q-0.28125 -0.234375 -0.71875 -0.234375q-0.9375 0 -1.09375 0.921875l2.109375 0zm11.043518 -3.65625q1.546875 0 2.421875 1.046875q0.875 1.03125 0.875 2.8125l0 5.234375l-3.546875 0l0 -4.78125q0 -0.640625 -0.34375 -1.015625q-0.34375 -0.375 -0.921875 -0.375q-0.578125 0 -0.921875 0.375q-0.328125 0.375 -0.328125 1.015625l0 4.78125l-3.5625 0l0 -9.03125l3.5625 0l0 1.390625q0.40625 -0.640625 1.09375 -1.046875q0.703125 -0.40625 1.671875 -0.40625zm13.558258 4.5q0 0.375 -0.046875 0.703125l-5.703125 0q0.078125 1.171875 0.96875 1.171875q0.578125 0 0.828125 -0.53125l3.765625 0q-0.1875 0.96875 -0.8125 1.734375q-0.609375 0.75 -1.546875 1.1875q-0.9375 0.4375 -2.0625 0.4375q-1.34375 0 -2.390625 -0.5625q-1.046875 -0.5625 -1.640625 -1.609375q-0.578125 -1.046875 -0.578125 -2.453125q0 -1.40625 0.578125 -2.453125q0.59375 -1.046875 1.640625 -1.609375q1.046875 -0.5625 2.390625 -0.5625q1.34375 0 2.390625 0.5625q1.0625 0.546875 1.640625 1.578125q0.578125 1.015625 0.578125 2.40625zm-3.59375 -0.84375q0 -0.453125 -0.296875 -0.6875q-0.28125 -0.234375 -0.71875 -0.234375q-0.9375 0 -1.09375 0.921875l2.109375 0zm4.231018 0.921875q0 -1.421875 0.484375 -2.46875q0.5 -1.046875 1.34375 -1.59375q0.84375 -0.5625 1.90625 -0.5625q0.875 0 1.5 0.359375q0.640625 0.359375 0.984375 0.984375l0 -4.046875l3.546875 0l0 11.84375l-3.546875 0l0 -1.234375q-0.34375 0.625 -0.984375 0.984375q-0.625 0.359375 -1.5 0.359375q-1.0625 0 -1.90625 -0.546875q-0.84375 -0.546875 -1.34375 -1.59375q-0.484375 -1.0625 -0.484375 -2.484375zm6.234375 0q0 -0.71875 -0.375 -1.109375q-0.359375 -0.40625 -0.9375 -0.40625q-0.578125 0 -0.953125 0.40625q-0.359375 0.390625 -0.359375 1.109375q0 0.71875 0.359375 1.125q0.375 0.40625 0.953125 0.40625q0.578125 0 0.9375 -0.40625q0.375 -0.40625 0.375 -1.125z" fill-rule="nonzero"/></g></svg>