<svg width="344" height="58" viewBox="0 0 344 58" fill="none" xmlns="http://www.w3.org/2000/svg">
<circle cx="25" cy="27" r="25" fill="#F309DD"/>
<path d="M13.68 43.48C13.0933 43.1333 12.72 42.76 12.56 42.36C12.4 41.9867 12.32 41.6667 12.32 41.4C12.32 40.6533 12.5867 39.64 13.12 38.36C13.68 37.08 14.4133 35.6267 15.32 34C16.2533 32.3467 17.28 30.64 18.4 28.88C17.4133 28.8 16.5733 28.7467 15.88 28.72C15.1867 28.6933 14.5867 28.68 14.08 28.68H12.68C12.9733 27.9067 13.48 27.3733 14.2 27.08C14.9467 26.76 15.8267 26.6 16.84 26.6C17.2933 26.6 17.76 26.6267 18.24 26.68C18.72 26.7333 19.2133 26.8 19.72 26.88C21.08 24.8267 22.4667 22.84 23.88 20.92C25.32 18.9733 26.6533 17.2533 27.88 15.76C29.1333 14.24 30.1733 13.0933 31 12.32C31.7733 11.5733 32.4133 11.2 32.92 11.2C33.48 11.2 34.1867 11.6267 35.04 12.48C34.7733 12.6933 34.4267 13.2667 34 14.2C33.6 15.1067 33.16 16.2533 32.68 17.64C32.2267 19.0267 31.7733 20.5467 31.32 22.2C30.8667 23.8533 30.44 25.5467 30.04 27.28C29.6667 28.9867 29.36 30.6133 29.12 32.16C28.9067 33.7067 28.8 35.0667 28.8 36.24C28.8 37.2533 28.9067 38.04 29.12 38.6C29.36 39.16 29.7467 39.44 30.28 39.44C30.9733 39.44 31.76 38.96 32.64 38C33.52 37.04 34.48 35.5467 35.52 33.52L35.92 33.92C35.12 36.0533 34.0933 37.8 32.84 39.16C31.6133 40.52 30.3333 41.2 29 41.2C27.9067 41.2 27.1067 40.72 26.6 39.76C26.12 38.7733 25.88 37.4667 25.88 35.84C25.88 34.1333 26.1067 32.1467 26.56 29.88C25.3867 29.6933 24.3067 29.5467 23.32 29.44C22.36 29.3067 21.4667 29.1867 20.64 29.08C19.3867 31.4 18.16 33.7867 16.96 36.24C15.7867 38.6933 14.6933 41.1067 13.68 43.48ZM26.84 28.48C27.24 26.72 27.7067 24.9467 28.24 23.16C28.7733 21.3467 29.3333 19.6267 29.92 18C30.5333 16.3733 31.1067 14.9467 31.64 13.72C30.8133 14.2267 29.8533 15.1333 28.76 16.44C27.6933 17.72 26.56 19.2933 25.36 21.16C24.16 23 22.9333 25.0267 21.68 27.24C22.5867 27.4267 23.48 27.64 24.36 27.88C25.2667 28.0933 26.0933 28.2933 26.84 28.48Z" fill="white"/>
<path d="M80.192 38.864H68.864L67.184 44H56L68.432 10.016H80.72L93.104 44H81.872L80.192 38.864ZM77.6 30.848L74.528 21.392L71.456 30.848H77.6ZM136.613 16.928L130.181 44H118.181L114.917 28.736L111.461 44H99.461L93.077 16.928H103.637L105.893 33.392L109.397 16.928H120.773L124.469 33.584L126.773 16.928H136.613ZM137.444 30.464C137.444 27.616 137.924 25.152 138.884 23.072C139.876 20.96 141.22 19.36 142.916 18.272C144.612 17.152 146.516 16.592 148.628 16.592C150.388 16.592 151.908 16.96 153.188 17.696C154.468 18.4 155.444 19.376 156.116 20.624V16.928H166.724V44H156.116V40.304C155.444 41.552 154.468 42.544 153.188 43.28C151.908 43.984 150.388 44.336 148.628 44.336C146.516 44.336 144.612 43.792 142.916 42.704C141.22 41.584 139.876 39.984 138.884 37.904C137.924 35.792 137.444 33.312 137.444 30.464ZM156.116 30.464C156.116 29.024 155.748 27.904 155.012 27.104C154.276 26.304 153.332 25.904 152.18 25.904C151.028 25.904 150.084 26.304 149.348 27.104C148.612 27.904 148.244 29.024 148.244 30.464C148.244 31.904 148.612 33.024 149.348 33.824C150.084 34.624 151.028 35.024 152.18 35.024C153.332 35.024 154.276 34.624 155.012 33.824C155.748 33.024 156.116 31.904 156.116 30.464ZM188.837 44L182.165 33.2V44H171.509V8.48H182.165V27.056L188.933 16.928H201.317L191.189 30.56L201.557 44H188.837ZM230.155 30.224C230.155 30.96 230.107 31.664 230.011 32.336H212.875C213.035 34.672 214.011 35.84 215.803 35.84C216.955 35.84 217.787 35.312 218.299 34.256H229.579C229.195 36.176 228.379 37.904 227.131 39.44C225.915 40.944 224.363 42.144 222.475 43.04C220.619 43.904 218.571 44.336 216.331 44.336C213.643 44.336 211.243 43.776 209.131 42.656C207.051 41.536 205.419 39.936 204.235 37.856C203.083 35.744 202.507 33.28 202.507 30.464C202.507 27.648 203.083 25.2 204.235 23.12C205.419 21.008 207.051 19.392 209.131 18.272C211.243 17.152 213.643 16.592 216.331 16.592C219.019 16.592 221.403 17.152 223.483 18.272C225.595 19.36 227.227 20.928 228.379 22.976C229.563 25.024 230.155 27.44 230.155 30.224ZM219.355 27.68C219.355 26.784 219.067 26.112 218.491 25.664C217.915 25.184 217.195 24.944 216.331 24.944C214.443 24.944 213.339 25.856 213.019 27.68H219.355ZM252.485 16.736C255.589 16.736 258.005 17.776 259.733 19.856C261.493 21.936 262.373 24.752 262.373 28.304V44H251.765V29.648C251.765 28.368 251.413 27.36 250.709 26.624C250.037 25.856 249.125 25.472 247.973 25.472C246.789 25.472 245.861 25.856 245.189 26.624C244.517 27.36 244.181 28.368 244.181 29.648V44H233.525V16.928H244.181V21.056C245.013 19.776 246.117 18.736 247.493 17.936C248.901 17.136 250.565 16.736 252.485 16.736ZM272.37 14.768C270.514 14.768 269.026 14.272 267.906 13.28C266.786 12.288 266.226 11.04 266.226 9.536C266.226 8 266.786 6.736 267.906 5.744C269.026 4.72 270.514 4.208 272.37 4.208C274.194 4.208 275.666 4.72 276.786 5.744C277.906 6.736 278.466 8 278.466 9.536C278.466 11.04 277.906 12.288 276.786 13.28C275.666 14.272 274.194 14.768 272.37 14.768ZM277.65 16.928V44H266.994V16.928H277.65ZM301.423 16.736C304.527 16.736 306.943 17.776 308.671 19.856C310.431 21.936 311.311 24.752 311.311 28.304V44H300.703V29.648C300.703 28.368 300.351 27.36 299.647 26.624C298.975 25.856 298.063 25.472 296.911 25.472C295.727 25.472 294.799 25.856 294.127 26.624C293.455 27.36 293.119 28.368 293.119 29.648V44H282.463V16.928H293.119V21.056C293.951 19.776 295.055 18.736 296.431 17.936C297.839 17.136 299.503 16.736 301.423 16.736ZM325.675 16.592C327.435 16.592 328.955 16.96 330.235 17.696C331.515 18.4 332.491 19.376 333.163 20.624V16.928H343.771V43.52C343.771 46.048 343.307 48.352 342.379 50.432C341.451 52.512 339.947 54.176 337.867 55.424C335.819 56.672 333.179 57.296 329.947 57.296C325.595 57.296 322.139 56.272 319.579 54.224C317.051 52.208 315.611 49.456 315.259 45.968H325.723C326.011 47.376 327.163 48.08 329.179 48.08C330.427 48.08 331.403 47.76 332.107 47.12C332.811 46.48 333.163 45.28 333.163 43.52V40.304C332.491 41.552 331.515 42.544 330.235 43.28C328.955 43.984 327.435 44.336 325.675 44.336C323.563 44.336 321.659 43.792 319.963 42.704C318.267 41.584 316.923 39.984 315.931 37.904C314.971 35.792 314.491 33.312 314.491 30.464C314.491 27.616 314.971 25.152 315.931 23.072C316.923 20.96 318.267 19.36 319.963 18.272C321.659 17.152 323.563 16.592 325.675 16.592ZM333.163 30.464C333.163 29.024 332.795 27.904 332.059 27.104C331.323 26.304 330.379 25.904 329.227 25.904C328.075 25.904 327.131 26.304 326.395 27.104C325.659 27.904 325.291 29.024 325.291 30.464C325.291 31.904 325.659 33.024 326.395 33.824C327.131 34.624 328.075 35.024 329.227 35.024C330.379 35.024 331.323 34.624 332.059 33.824C332.795 33.024 333.163 31.904 333.163 30.464Z" fill="black"/>
<circle cx="272.5" cy="7.5" r="7.5" fill="#F309DD"/>
<line x1="56" y1="51" x2="311" y2="51" stroke="#F309DD" stroke-width="4"/>
</svg>
